<svg width="329" height="324" viewBox="0 0 329 324" fill="none" xmlns="http://www.w3.org/2000/svg">
<g filter="url(#filter0_d_37_1645)">
<path d="M12.5829 0H316.417C321.157 0 325 4.89496 325 10.9346V305.065C325 311.104 321.157 316 316.417 316H12.5829C7.84256 316 4 311.105 4 305.065V10.9346C4 4.89496 7.84256 0 12.5829 0Z" fill="white"/>
<path d="M26.455 30.065H22.48L21.82 32H19.12L23.005 21.47H25.96L29.845 32H27.115L26.455 30.065ZM25.795 28.115L24.475 24.215L23.14 28.115H25.795ZM34.622 23.525C35.702 23.525 36.607 23.825 37.337 24.425C38.067 25.015 38.527 25.83 38.717 26.87H36.002C35.922 26.51 35.757 26.23 35.507 26.03C35.257 25.83 34.942 25.73 34.562 25.73C34.112 25.73 33.742 25.91 33.452 26.27C33.162 26.62 33.017 27.135 33.017 27.815C33.017 28.495 33.162 29.015 33.452 29.375C33.742 29.725 34.112 29.9 34.562 29.9C34.942 29.9 35.257 29.8 35.507 29.6C35.757 29.4 35.922 29.12 36.002 28.76H38.717C38.527 29.8 38.067 30.62 37.337 31.22C36.607 31.81 35.702 32.105 34.622 32.105C33.802 32.105 33.072 31.935 32.432 31.595C31.802 31.245 31.307 30.745 30.947 30.095C30.587 29.445 30.407 28.685 30.407 27.815C30.407 26.935 30.582 26.175 30.932 25.535C31.292 24.885 31.792 24.39 32.432 24.05C33.072 23.7 33.802 23.525 34.622 23.525ZM44.7959 29.795V32H43.6409C42.6609 32 41.8959 31.76 41.3459 31.28C40.8059 30.79 40.5359 29.985 40.5359 28.865V25.79H39.4109V23.63H40.5359V21.575H43.1009V23.63H44.7809V25.79H43.1009V28.91C43.1009 29.24 43.1659 29.47 43.2959 29.6C43.4359 29.73 43.6659 29.795 43.9859 29.795H44.7959ZM45.9975 21.275C45.9975 20.885 46.1375 20.565 46.4175 20.315C46.6975 20.055 47.0675 19.925 47.5275 19.925C47.9875 19.925 48.3575 20.055 48.6375 20.315C48.9175 20.565 49.0575 20.885 49.0575 21.275C49.0575 21.655 48.9175 21.975 48.6375 22.235C48.3575 22.485 47.9875 22.61 47.5275 22.61C47.0675 22.61 46.6975 22.485 46.4175 22.235C46.1375 21.975 45.9975 21.655 45.9975 21.275ZM48.8025 23.63V32H46.2375V23.63H48.8025ZM54.4435 29.495L56.2585 23.63H58.9885L56.0185 32H52.8385L49.8685 23.63H52.5985L54.4435 29.495ZM59.811 21.275C59.811 20.885 59.951 20.565 60.231 20.315C60.511 20.055 60.881 19.925 61.341 19.925C61.801 19.925 62.171 20.055 62.451 20.315C62.731 20.565 62.871 20.885 62.871 21.275C62.871 21.655 62.731 21.975 62.451 22.235C62.171 22.485 61.801 22.61 61.341 22.61C60.881 22.61 60.511 22.485 60.231 22.235C59.951 21.975 59.811 21.655 59.811 21.275ZM62.616 23.63V32H60.051V23.63H62.616ZM69.127 29.795V32H67.972C66.992 32 66.227 31.76 65.677 31.28C65.137 30.79 64.867 29.985 64.867 28.865V25.79H63.742V23.63H64.867V21.575H67.432V23.63H69.112V25.79H67.432V28.91C67.432 29.24 67.497 29.47 67.627 29.6C67.767 29.73 67.997 29.795 68.317 29.795H69.127ZM72.5036 23.63L74.5136 28.76L76.3886 23.63H79.2236L74.0036 35.99H71.1836L73.1486 31.685L69.6386 23.63H72.5036ZM92.2434 21.395V32H89.6634V27.575H85.6434V32H83.0784V21.395H85.6434V25.505H89.6634V21.395H92.2434ZM97.9211 23.525C98.7511 23.525 99.4911 23.7 100.141 24.05C100.801 24.39 101.316 24.885 101.686 25.535C102.066 26.185 102.256 26.945 102.256 27.815C102.256 28.685 102.066 29.445 101.686 30.095C101.316 30.745 100.801 31.245 100.141 31.595C99.4911 31.935 98.7511 32.105 97.9211 32.105C97.0911 32.105 96.3461 31.935 95.6861 31.595C95.0261 31.245 94.5061 30.745 94.1261 30.095C93.7561 29.445 93.5711 28.685 93.5711 27.815C93.5711 26.945 93.7561 26.185 94.1261 25.535C94.5061 24.885 95.0261 24.39 95.6861 24.05C96.3461 23.7 97.0911 23.525 97.9211 23.525ZM97.9211 25.745C97.4311 25.745 97.0161 25.925 96.6761 26.285C96.3461 26.635 96.1811 27.145 96.1811 27.815C96.1811 28.485 96.3461 28.995 96.6761 29.345C97.0161 29.695 97.4311 29.87 97.9211 29.87C98.4111 29.87 98.8211 29.695 99.1511 29.345C99.4811 28.995 99.6461 28.485 99.6461 27.815C99.6461 27.145 99.4811 26.635 99.1511 26.285C98.8211 25.925 98.4111 25.745 97.9211 25.745ZM111.911 23.63V32H109.331V30.485C109.091 30.975 108.731 31.365 108.251 31.655C107.781 31.945 107.231 32.09 106.601 32.09C105.641 32.09 104.876 31.77 104.306 31.13C103.746 30.49 103.466 29.61 103.466 28.49V23.63H106.016V28.175C106.016 28.745 106.161 29.19 106.451 29.51C106.751 29.82 107.151 29.975 107.651 29.975C108.171 29.975 108.581 29.81 108.881 29.48C109.181 29.15 109.331 28.68 109.331 28.07V23.63H111.911ZM116.244 25.205C116.564 24.695 116.974 24.29 117.474 23.99C117.984 23.69 118.534 23.54 119.124 23.54V26.285H118.389C117.709 26.285 117.179 26.43 116.799 26.72C116.429 27.01 116.244 27.5 116.244 28.19V32H113.679V23.63H116.244V25.205ZM123.243 23.525C124.303 23.525 125.148 23.79 125.778 24.32C126.418 24.85 126.818 25.55 126.978 26.42H124.578C124.508 26.08 124.348 25.815 124.098 25.625C123.858 25.425 123.553 25.325 123.183 25.325C122.893 25.325 122.673 25.39 122.523 25.52C122.373 25.64 122.298 25.815 122.298 26.045C122.298 26.305 122.433 26.5 122.703 26.63C122.983 26.76 123.418 26.89 124.008 27.02C124.648 27.17 125.173 27.325 125.583 27.485C125.993 27.635 126.348 27.885 126.648 28.235C126.948 28.585 127.098 29.055 127.098 29.645C127.098 30.125 126.968 30.55 126.708 30.92C126.448 31.29 126.073 31.58 125.583 31.79C125.093 32 124.513 32.105 123.843 32.105C122.713 32.105 121.808 31.855 121.128 31.355C120.448 30.855 120.033 30.14 119.883 29.21H122.358C122.398 29.57 122.548 29.845 122.808 30.035C123.078 30.225 123.423 30.32 123.843 30.32C124.133 30.32 124.353 30.255 124.503 30.125C124.653 29.985 124.728 29.805 124.728 29.585C124.728 29.295 124.588 29.09 124.308 28.97C124.038 28.84 123.593 28.705 122.973 28.565C122.353 28.435 121.843 28.295 121.443 28.145C121.043 27.995 120.698 27.755 120.408 27.425C120.118 27.085 119.973 26.625 119.973 26.045C119.973 25.295 120.258 24.69 120.828 24.23C121.398 23.76 122.203 23.525 123.243 23.525Z" fill="#30336A"/>
<path d="M297 14H232C229.239 14 227 16.2386 227 19V34C227 36.7614 229.239 39 232 39H297C299.761 39 302 36.7614 302 34V19C302 16.2386 299.761 14 297 14Z" fill="#F8F8F8"/>
<path d="M249.178 24.94L247.418 32H246.018L244.528 26.54L243.038 32H241.638L239.878 24.94H241.128L242.348 30.68L243.898 24.94H245.158L246.708 30.68L247.928 24.94H249.178ZM255.319 28.98C255.319 29.1667 255.306 29.33 255.279 29.47H251.039C251.059 30.0367 251.216 30.4567 251.509 30.73C251.802 31.0033 252.166 31.14 252.599 31.14C252.979 31.14 253.299 31.0433 253.559 30.85C253.826 30.6567 253.989 30.4 254.049 30.08H255.269C255.196 30.4667 255.042 30.81 254.809 31.11C254.576 31.41 254.272 31.6467 253.899 31.82C253.526 31.9867 253.109 32.07 252.649 32.07C252.116 32.07 251.642 31.9567 251.229 31.73C250.822 31.5033 250.502 31.1767 250.269 30.75C250.036 30.3233 249.919 29.82 249.919 29.24C249.919 28.6667 250.036 28.1667 250.269 27.74C250.502 27.3133 250.822 26.9867 251.229 26.76C251.642 26.5333 252.116 26.42 252.649 26.42C253.189 26.42 253.659 26.5333 254.059 26.76C254.466 26.98 254.776 27.2867 254.989 27.68C255.209 28.0667 255.319 28.5 255.319 28.98ZM254.169 28.95C254.182 28.59 254.119 28.29 253.979 28.05C253.846 27.8033 253.659 27.6233 253.419 27.51C253.186 27.39 252.929 27.33 252.649 27.33C252.202 27.33 251.829 27.4667 251.529 27.74C251.229 28.0133 251.066 28.4167 251.039 28.95H254.169ZM261.54 28.98C261.54 29.1667 261.526 29.33 261.5 29.47H257.26C257.28 30.0367 257.436 30.4567 257.73 30.73C258.023 31.0033 258.386 31.14 258.82 31.14C259.2 31.14 259.52 31.0433 259.78 30.85C260.046 30.6567 260.21 30.4 260.27 30.08H261.49C261.416 30.4667 261.263 30.81 261.03 31.11C260.796 31.41 260.493 31.6467 260.12 31.82C259.746 31.9867 259.33 32.07 258.87 32.07C258.336 32.07 257.863 31.9567 257.45 31.73C257.043 31.5033 256.723 31.1767 256.49 30.75C256.256 30.3233 256.14 29.82 256.14 29.24C256.14 28.6667 256.256 28.1667 256.49 27.74C256.723 27.3133 257.043 26.9867 257.45 26.76C257.863 26.5333 258.336 26.42 258.87 26.42C259.41 26.42 259.88 26.5333 260.28 26.76C260.686 26.98 260.996 27.2867 261.21 27.68C261.43 28.0667 261.54 28.5 261.54 28.98ZM260.39 28.95C260.403 28.59 260.34 28.29 260.2 28.05C260.066 27.8033 259.88 27.6233 259.64 27.51C259.406 27.39 259.15 27.33 258.87 27.33C258.423 27.33 258.05 27.4667 257.75 27.74C257.45 28.0133 257.286 28.4167 257.26 28.95H260.39ZM265.76 32L263.78 29.55V32H262.64V24.6H263.78V28.84L265.74 26.49H267.11L264.71 29.23L267.17 32H265.76ZM269.054 24.6V32H267.914V24.6H269.054ZM271.083 26.49L272.733 30.54L274.263 26.49H275.533L272.203 34.62H270.933L272.123 31.87L269.803 26.49H271.083Z" fill="#B7B7B7"/>
<path opacity="0.8" d="M284.502 29.9399L288.232 26.2069C288.297 26.1404 288.375 26.0876 288.461 26.0515C288.547 26.0154 288.639 25.9968 288.732 25.9968C288.825 25.9968 288.917 26.0154 289.003 26.0515C289.089 26.0876 289.167 26.1404 289.232 26.2069C289.364 26.34 289.438 26.5197 289.438 26.7069C289.438 26.8942 289.364 27.0738 289.232 27.2069L285.001 31.4349C284.873 31.5637 284.701 31.6378 284.519 31.6417C284.338 31.6456 284.162 31.579 284.029 31.4559L279.774 27.2089C279.708 27.1433 279.656 27.0653 279.621 26.9795C279.585 26.8937 279.567 26.8018 279.567 26.7089C279.567 26.6161 279.585 26.5241 279.621 26.4383C279.656 26.3525 279.708 26.2746 279.774 26.2089C279.907 26.0763 280.086 26.0018 280.274 26.0018C280.367 26.0018 280.459 26.0201 280.545 26.0556C280.63 26.0912 280.708 26.1433 280.774 26.2089L284.502 29.9399Z" fill="#B7B7B7"/>
<path d="M20.819 274.072C20.819 276.592 21.443 278.5 23.843 278.5C26.231 278.5 26.855 276.592 26.855 274.072C26.855 271.588 26.231 269.692 23.843 269.692C21.443 269.692 20.819 271.588 20.819 274.072ZM25.775 274.072C25.775 275.944 25.547 277.504 23.843 277.504C22.127 277.504 21.899 275.944 21.899 274.072C21.899 272.272 22.127 270.688 23.843 270.688C25.547 270.688 25.775 272.272 25.775 274.072ZM28.5342 278.5H29.6262V274.864C29.6262 273.448 30.3942 272.752 31.5102 272.752C32.6142 272.752 33.3462 273.436 33.3462 274.78V278.5H34.4262V274.624C34.4262 272.74 33.2622 271.804 31.7982 271.804C30.8742 271.804 30.0582 272.176 29.6262 272.872V269.62H28.5342V278.5Z" fill="#1A1A1A"/>
<path d="M21.683 227.092H22.787V218.416H20.531V219.412H21.683V227.092ZM24.8428 227.092H25.9348V223.456C25.9348 222.04 26.7028 221.344 27.8188 221.344C28.9228 221.344 29.6548 222.028 29.6548 223.372V227.092H30.7348V223.216C30.7348 221.332 29.5708 220.396 28.1068 220.396C27.1828 220.396 26.3668 220.768 25.9348 221.464V218.212H24.8428V227.092Z" fill="#1A1A1A"/>
<path d="M20.687 175.314H26.459V174.402H22.331C23.879 173.142 26.207 171.306 26.207 169.146C26.207 167.538 25.151 166.578 23.519 166.578C21.959 166.578 20.795 167.538 20.723 169.386H21.779C21.827 168.294 22.403 167.514 23.531 167.514C24.707 167.514 25.127 168.234 25.127 169.194C25.127 170.97 22.967 172.698 20.687 174.534V175.314ZM27.9013 175.41H28.9933V171.774C28.9933 170.358 29.7613 169.662 30.8773 169.662C31.9813 169.662 32.7133 170.346 32.7133 171.69V175.41H33.7933V171.534C33.7933 169.65 32.6293 168.714 31.1653 168.714C30.2413 168.714 29.4253 169.086 28.9933 169.782V166.53H27.9013V175.41Z" fill="#1A1A1A"/>
<path d="M20.795 117.237H21.863C21.971 116.397 22.583 115.821 23.603 115.821C24.647 115.821 25.199 116.397 25.199 117.225C25.199 118.233 24.419 118.677 22.967 118.689H22.679V119.601H22.955C24.515 119.601 25.367 120.069 25.367 121.293C25.367 122.181 24.815 122.865 23.651 122.865C22.499 122.865 21.827 122.157 21.719 121.233H20.663C20.795 122.913 22.019 123.789 23.663 123.789C25.475 123.789 26.411 122.733 26.411 121.389C26.411 120.141 25.727 119.397 24.719 119.157V119.097C25.631 118.893 26.255 118.113 26.255 117.117C26.255 115.869 25.331 114.885 23.639 114.885C22.031 114.885 20.903 115.749 20.795 117.237ZM28.0654 123.729H29.1574V120.093C29.1574 118.677 29.9254 117.981 31.0414 117.981C32.1454 117.981 32.8774 118.665 32.8774 120.009V123.729H33.9574V119.853C33.9574 117.969 32.7934 117.033 31.3294 117.033C30.4054 117.033 29.5894 117.405 29.1574 118.101V114.849H28.0654V123.729Z" fill="#1A1A1A"/>
<path d="M24.995 71.729H26.075V69.797H27.275V68.849H26.075V63.137H24.767L20.555 68.969V69.797H24.995V71.729ZM21.815 68.849L25.043 64.277V68.849H21.815ZM28.5459 71.729H29.6379V68.093C29.6379 66.677 30.4059 65.981 31.5219 65.981C32.6259 65.981 33.3579 66.665 33.3579 68.009V71.729H34.4379V67.853C34.4379 65.969 33.2739 65.033 31.8099 65.033C30.8859 65.033 30.0699 65.405 29.6379 66.101V62.849H28.5459V71.729Z" fill="#1A1A1A"/>
<path d="M48.369 301.5H49.188V296.847L51.267 301.5H51.843L53.913 296.856V301.5H54.732V295.272H53.859L51.555 300.42L49.251 295.272H48.369V301.5ZM60.801 299.025C60.801 297.468 59.712 296.487 58.308 296.487C56.913 296.487 55.815 297.468 55.815 299.025C55.815 300.591 56.877 301.581 58.272 301.581C59.676 301.581 60.801 300.591 60.801 299.025ZM56.652 299.025C56.652 297.783 57.435 297.198 58.299 297.198C59.145 297.198 59.964 297.783 59.964 299.025C59.964 300.276 59.127 300.861 58.272 300.861C57.417 300.861 56.652 300.276 56.652 299.025ZM65.4868 301.5H66.2968V298.593C66.2968 297.18 65.4238 296.478 64.2808 296.478C63.6148 296.478 63.0208 296.757 62.6968 297.27V296.568H61.8778V301.5H62.6968V298.773C62.6968 297.711 63.2728 297.189 64.1098 297.189C64.9378 297.189 65.4868 297.702 65.4868 298.71V301.5Z" fill="#1A1A1A"/>
<path d="M89.306 296.393H91.025V302H91.844V296.393H93.554V295.727H89.306V296.393ZM98.9361 297.068H98.1171V299.777C98.1171 300.839 97.5501 301.361 96.7041 301.361C95.8761 301.361 95.3271 300.848 95.3271 299.849V297.068H94.5171V299.957C94.5171 301.37 95.4081 302.072 96.5421 302.072C97.1991 302.072 97.8021 301.784 98.1171 301.271V302H98.9361V297.068ZM102.416 297.68C103.262 297.68 103.982 298.211 103.973 299.174H100.859C100.949 298.211 101.615 297.68 102.416 297.68ZM104.72 300.479H103.838C103.658 301.01 103.19 301.388 102.452 301.388C101.615 301.388 100.913 300.839 100.85 299.84H104.792C104.81 299.669 104.819 299.525 104.819 299.345C104.819 297.995 103.883 296.987 102.452 296.987C101.012 296.987 100.013 297.968 100.013 299.525C100.013 301.091 101.048 302.081 102.452 302.081C103.676 302.081 104.468 301.379 104.72 300.479Z" fill="#1A1A1A"/>
<path d="M130.694 302.009L131.603 302L133.115 296.951L134.573 302H135.491L137.309 295.727H136.427L135.05 301.028L133.61 295.727H132.692L131.18 301.046L129.812 295.727H128.939L130.694 302.009ZM140.302 297.68C141.148 297.68 141.868 298.211 141.859 299.174H138.745C138.835 298.211 139.501 297.68 140.302 297.68ZM142.606 300.479H141.724C141.544 301.01 141.076 301.388 140.338 301.388C139.501 301.388 138.799 300.839 138.736 299.84H142.678C142.696 299.669 142.705 299.525 142.705 299.345C142.705 297.995 141.769 296.987 140.338 296.987C138.898 296.987 137.899 297.968 137.899 299.525C137.899 301.091 138.934 302.081 140.338 302.081C141.562 302.081 142.354 301.379 142.606 300.479ZM143.48 299.516C143.48 301.046 144.497 302.081 145.82 302.081C146.72 302.081 147.359 301.622 147.656 301.073V302H148.484V295.34H147.656V297.95C147.314 297.383 146.603 296.987 145.829 296.987C144.497 296.987 143.48 297.977 143.48 299.516ZM147.656 299.525C147.656 300.686 146.882 301.361 145.982 301.361C145.082 301.361 144.317 300.677 144.317 299.516C144.317 298.355 145.082 297.698 145.982 297.698C146.882 297.698 147.656 298.382 147.656 299.525Z" fill="#1A1A1A"/>
<path d="M169.998 295.893H171.717V301.5H172.536V295.893H174.246V295.227H169.998V295.893ZM175.254 301.5H176.073V298.773C176.073 297.711 176.649 297.189 177.486 297.189C178.314 297.189 178.863 297.702 178.863 298.71V301.5H179.673V298.593C179.673 297.18 178.8 296.478 177.702 296.478C177.009 296.478 176.397 296.757 176.073 297.279V294.84H175.254V301.5ZM185.385 296.568H184.566V299.277C184.566 300.339 183.999 300.861 183.153 300.861C182.325 300.861 181.776 300.348 181.776 299.349V296.568H180.966V299.457C180.966 300.87 181.857 301.572 182.991 301.572C183.648 301.572 184.251 301.284 184.566 300.771V301.5H185.385V296.568Z" fill="#1A1A1A"/>
<path d="M212.118 301.5H212.937V298.674H215.151V298.008H212.937V295.893H215.664V295.227H212.118V301.5ZM217.472 298.818C217.472 297.675 218.066 297.324 218.849 297.324H219.065V296.478C218.282 296.478 217.751 296.82 217.472 297.369V296.568H216.653V301.5H217.472V298.818ZM220.011 301.5H220.83V296.568H220.011V301.5ZM220.434 295.767C220.731 295.767 220.974 295.524 220.974 295.209C220.974 294.894 220.731 294.651 220.434 294.651C220.119 294.651 219.876 294.894 219.876 295.209C219.876 295.524 220.119 295.767 220.434 295.767Z" fill="#1A1A1A"/>
<path d="M256.54 300.29C256.54 297.968 253.156 298.976 253.156 297.356C253.156 296.681 253.687 296.33 254.362 296.348C255.127 296.357 255.523 296.834 255.577 297.257H256.477C256.378 296.303 255.595 295.646 254.398 295.646C253.156 295.646 252.319 296.348 252.319 297.383C252.319 299.714 255.712 298.634 255.712 300.326C255.712 300.92 255.244 301.37 254.452 301.37C253.579 301.37 253.21 300.848 253.156 300.326H252.283C252.301 301.361 253.192 302.063 254.452 302.063C255.811 302.063 256.54 301.181 256.54 300.29ZM257.439 299.516C257.439 301.046 258.456 302.081 259.77 302.081C260.679 302.081 261.318 301.613 261.615 301.082V302H262.443V297.068H261.615V297.968C261.327 297.455 260.697 296.987 259.779 296.987C258.456 296.987 257.439 297.977 257.439 299.516ZM261.615 299.525C261.615 300.686 260.841 301.361 259.941 301.361C259.041 301.361 258.276 300.677 258.276 299.516C258.276 298.355 259.041 297.698 259.941 297.698C260.841 297.698 261.615 298.382 261.615 299.525ZM264.007 300.65C264.007 301.64 264.502 302 265.375 302H266.113V301.307H265.51C265.006 301.307 264.826 301.136 264.826 300.65V297.743H266.113V297.068H264.826V295.826H264.007V297.068H263.368V297.743H264.007V300.65Z" fill="#1A1A1A"/>
<path d="M254.362 296.348L254.359 296.448L254.361 296.448L254.362 296.348ZM255.577 297.257L255.478 297.27L255.489 297.357H255.577V297.257ZM256.477 297.257V297.357H256.588L256.576 297.247L256.477 297.257ZM253.156 300.326L253.255 300.316L253.246 300.226H253.156V300.326ZM252.283 300.326V300.226H252.181L252.183 300.328L252.283 300.326ZM256.64 300.29C256.64 299.68 256.416 299.279 256.074 299.002C255.739 298.731 255.298 298.584 254.875 298.464C254.444 298.341 254.037 298.246 253.732 298.083C253.582 298.003 253.464 297.91 253.383 297.795C253.304 297.681 253.256 297.54 253.256 297.356H253.056C253.056 297.577 253.114 297.759 253.22 297.909C253.324 298.058 253.47 298.17 253.638 298.26C253.967 298.436 254.406 298.538 254.821 298.656C255.244 298.776 255.649 298.914 255.948 299.157C256.241 299.395 256.44 299.739 256.44 300.29H256.64ZM253.256 297.356C253.256 297.048 253.376 296.821 253.567 296.671C253.762 296.519 254.039 296.439 254.359 296.448L254.365 296.248C254.01 296.239 253.684 296.326 253.444 296.513C253.202 296.703 253.056 296.989 253.056 297.356H253.256ZM254.361 296.448C255.079 296.456 255.431 296.899 255.478 297.27L255.676 297.244C255.615 296.769 255.175 296.258 254.363 296.248L254.361 296.448ZM255.577 297.357H256.477V297.157H255.577V297.357ZM256.576 297.247C256.524 296.744 256.291 296.316 255.911 296.015C255.533 295.715 255.015 295.546 254.398 295.546V295.746C254.978 295.746 255.45 295.905 255.787 296.172C256.123 296.438 256.331 296.816 256.378 297.267L256.576 297.247ZM254.398 295.546C253.759 295.546 253.215 295.727 252.829 296.05C252.441 296.374 252.219 296.836 252.219 297.383H252.419C252.419 296.895 252.616 296.489 252.957 296.203C253.3 295.916 253.795 295.746 254.398 295.746V295.546ZM252.219 297.383C252.219 297.995 252.444 298.394 252.787 298.667C253.123 298.934 253.566 299.074 253.989 299.191C254.422 299.309 254.829 299.402 255.134 299.568C255.284 299.65 255.402 299.746 255.483 299.865C255.564 299.984 255.612 300.132 255.612 300.326H255.812C255.812 300.097 255.754 299.908 255.649 299.753C255.545 299.599 255.398 299.484 255.23 299.392C254.898 299.212 254.458 299.112 254.042 298.998C253.617 298.881 253.212 298.749 252.911 298.51C252.618 298.277 252.419 297.937 252.419 297.383H252.219ZM255.612 300.326C255.612 300.595 255.507 300.828 255.314 300.995C255.119 301.163 254.829 301.27 254.452 301.27V301.47C254.867 301.47 255.207 301.352 255.444 301.146C255.683 300.94 255.812 300.651 255.812 300.326H255.612ZM254.452 301.27C254.036 301.27 253.752 301.146 253.565 300.971C253.378 300.795 253.28 300.557 253.255 300.316L253.057 300.336C253.086 300.617 253.2 300.901 253.428 301.117C253.658 301.333 253.995 301.47 254.452 301.47V301.27ZM253.156 300.226H252.283V300.426H253.156V300.226ZM252.183 300.328C252.193 300.876 252.434 301.338 252.839 301.661C253.243 301.983 253.804 302.163 254.452 302.163V301.963C253.84 301.963 253.325 301.792 252.964 301.504C252.604 301.218 252.391 300.811 252.383 300.324L252.183 300.328ZM254.452 302.163C255.861 302.163 256.64 301.242 256.64 300.29H256.44C256.44 301.12 255.761 301.963 254.452 301.963V302.163ZM261.615 301.082H261.715V300.698L261.528 301.033L261.615 301.082ZM261.615 302H261.515V302.1H261.615V302ZM262.443 302V302.1H262.543V302H262.443ZM262.443 297.068H262.543V296.968H262.443V297.068ZM261.615 297.068V296.968H261.515V297.068H261.615ZM261.615 297.968L261.528 298.017L261.715 298.35V297.968H261.615ZM257.339 299.516C257.339 301.094 258.394 302.181 259.77 302.181V301.981C258.518 301.981 257.539 300.998 257.539 299.516H257.339ZM259.77 302.181C260.716 302.181 261.388 301.693 261.703 301.131L261.528 301.033C261.248 301.533 260.643 301.981 259.77 301.981V302.181ZM261.515 301.082V302H261.715V301.082H261.515ZM261.615 302.1H262.443V301.9H261.615V302.1ZM262.543 302V297.068H262.343V302H262.543ZM262.443 296.968H261.615V297.168H262.443V296.968ZM261.515 297.068V297.968H261.715V297.068H261.515ZM261.702 297.919C261.397 297.375 260.734 296.887 259.779 296.887V297.087C260.661 297.087 261.258 297.535 261.528 298.017L261.702 297.919ZM259.779 296.887C259.092 296.887 258.48 297.145 258.041 297.605C257.601 298.066 257.339 298.724 257.339 299.516H257.539C257.539 298.769 257.786 298.162 258.185 297.743C258.585 297.324 259.143 297.087 259.779 297.087V296.887ZM261.515 299.525C261.515 300.083 261.33 300.515 261.044 300.809C260.758 301.102 260.366 301.261 259.941 301.261V301.461C260.417 301.461 260.861 301.282 261.187 300.948C261.514 300.614 261.715 300.128 261.715 299.525H261.515ZM259.941 301.261C259.517 301.261 259.127 301.1 258.843 300.805C258.56 300.509 258.376 300.074 258.376 299.516H258.176C258.176 300.119 258.375 300.606 258.699 300.943C259.023 301.28 259.465 301.461 259.941 301.461V301.261ZM258.376 299.516C258.376 298.958 258.56 298.53 258.843 298.242C259.126 297.953 259.516 297.798 259.941 297.798V297.598C259.467 297.598 259.024 297.772 258.7 298.102C258.375 298.432 258.176 298.913 258.176 299.516H258.376ZM259.941 297.798C260.784 297.798 261.515 298.435 261.515 299.525H261.715C261.715 298.329 260.899 297.598 259.941 297.598V297.798ZM266.113 302V302.1H266.213V302H266.113ZM266.113 301.307H266.213V301.207H266.113V301.307ZM264.826 297.743V297.643H264.726V297.743H264.826ZM266.113 297.743V297.843H266.213V297.743H266.113ZM266.113 297.068H266.213V296.968H266.113V297.068ZM264.826 297.068H264.726V297.168H264.826V297.068ZM264.826 295.826H264.926V295.726H264.826V295.826ZM264.007 295.826V295.726H263.907V295.826H264.007ZM264.007 297.068V297.168H264.107V297.068H264.007ZM263.368 297.068V296.968H263.268V297.068H263.368ZM263.368 297.743H263.268V297.843H263.368V297.743ZM264.007 297.743H264.107V297.643H264.007V297.743ZM263.907 300.65C263.907 301.16 264.035 301.53 264.296 301.77C264.556 302.008 264.928 302.1 265.375 302.1V301.9C264.95 301.9 264.638 301.812 264.432 301.623C264.227 301.435 264.107 301.13 264.107 300.65H263.907ZM265.375 302.1H266.113V301.9H265.375V302.1ZM266.213 302V301.307H266.013V302H266.213ZM266.113 301.207H265.51V301.407H266.113V301.207ZM265.51 301.207C265.264 301.207 265.127 301.164 265.048 301.089C264.971 301.014 264.926 300.885 264.926 300.65H264.726C264.726 300.901 264.772 301.1 264.91 301.233C265.047 301.364 265.252 301.407 265.51 301.407V301.207ZM264.926 300.65V297.743H264.726V300.65H264.926ZM264.826 297.843H266.113V297.643H264.826V297.843ZM266.213 297.743V297.068H266.013V297.743H266.213ZM266.113 296.968H264.826V297.168H266.113V296.968ZM264.926 297.068V295.826H264.726V297.068H264.926ZM264.826 295.726H264.007V295.926H264.826V295.726ZM263.907 295.826V297.068H264.107V295.826H263.907ZM264.007 296.968H263.368V297.168H264.007V296.968ZM263.268 297.068V297.743H263.468V297.068H263.268ZM263.368 297.843H264.007V297.643H263.368V297.843ZM263.907 297.743V300.65H264.107V297.743H263.907Z" fill="#1A1A1A"/>
<path d="M294.569 300.79C294.569 298.468 291.185 299.476 291.185 297.856C291.185 297.181 291.716 296.83 292.391 296.848C293.156 296.857 293.552 297.334 293.606 297.757H294.506C294.407 296.803 293.624 296.146 292.427 296.146C291.185 296.146 290.348 296.848 290.348 297.883C290.348 300.214 293.741 299.134 293.741 300.826C293.741 301.42 293.273 301.87 292.481 301.87C291.608 301.87 291.239 301.348 291.185 300.826H290.312C290.33 301.861 291.221 302.563 292.481 302.563C293.84 302.563 294.569 301.681 294.569 300.79ZM300.148 297.568H299.329V300.277C299.329 301.339 298.762 301.861 297.916 301.861C297.088 301.861 296.539 301.348 296.539 300.349V297.568H295.729V300.457C295.729 301.87 296.62 302.572 297.754 302.572C298.411 302.572 299.014 302.284 299.329 301.771V302.5H300.148V297.568ZM305.14 302.5H305.95V299.593C305.95 298.18 305.077 297.478 303.934 297.478C303.268 297.478 302.674 297.757 302.35 298.27V297.568H301.531V302.5H302.35V299.773C302.35 298.711 302.926 298.189 303.763 298.189C304.591 298.189 305.14 298.702 305.14 299.71V302.5Z" fill="#1A1A1A"/>
<path opacity="0.15" d="M64 64.25C64 60.5221 60.9779 57.5 57.25 57.5C53.5221 57.5 50.5 60.5221 50.5 64.25V273.75C50.5 277.478 53.5221 280.5 57.25 280.5C60.9779 280.5 64 277.478 64 273.75V64.25Z" fill="#0786F2"/>
<path d="M64 205.25C64 201.522 60.9779 198.5 57.25 198.5C53.5221 198.5 50.5 201.522 50.5 205.25V273.75C50.5 277.478 53.5221 280.5 57.25 280.5C60.9779 280.5 64 277.478 64 273.75V205.25Z" fill="#0786F2"/>
<path opacity="0.15" d="M103.5 64.25C103.5 60.5221 100.478 57.5 96.75 57.5C93.0221 57.5 90 60.5221 90 64.25V273.75C90 277.478 93.0221 280.5 96.75 280.5C100.478 280.5 103.5 277.478 103.5 273.75V64.25Z" fill="#0786F2"/>
<path d="M103.5 250.25C103.5 246.522 100.478 243.5 96.75 243.5C93.0221 243.5 90 246.522 90 250.25V273.75C90 277.478 93.0221 280.5 96.75 280.5C100.478 280.5 103.5 277.478 103.5 273.75V250.25Z" fill="#0786F2"/>
<path opacity="0.15" d="M143 64.25C143 60.5221 139.978 57.5 136.25 57.5C132.522 57.5 129.5 60.5221 129.5 64.25V273.75C129.5 277.478 132.522 280.5 136.25 280.5C139.978 280.5 143 277.478 143 273.75V64.25Z" fill="#0786F2"/>
<path d="M143 205.25C143 201.522 139.978 198.5 136.25 198.5C132.522 198.5 129.5 201.522 129.5 205.25V273.75C129.5 277.478 132.522 280.5 136.25 280.5C139.978 280.5 143 277.478 143 273.75V205.25Z" fill="#0786F2"/>
<path opacity="0.15" d="M182.5 64.25C182.5 60.5221 179.478 57.5 175.75 57.5C172.022 57.5 169 60.5221 169 64.25V273.75C169 277.478 172.022 280.5 175.75 280.5C179.478 280.5 182.5 277.478 182.5 273.75V64.25Z" fill="#0786F2"/>
<path d="M182.5 102.25C182.5 98.5221 179.478 95.5 175.75 95.5C172.022 95.5 169 98.5221 169 102.25V273.75C169 277.478 172.022 280.5 175.75 280.5C179.478 280.5 182.5 277.478 182.5 273.75V102.25Z" fill="#0786F2"/>
<path opacity="0.15" d="M222 64.75C222 61.0221 218.978 58 215.25 58C211.522 58 208.5 61.0221 208.5 64.75V274.25C208.5 277.978 211.522 281 215.25 281C218.978 281 222 277.978 222 274.25V64.75Z" fill="#0786F2"/>
<path d="M222.5 160.25C222.5 156.522 219.478 153.5 215.75 153.5C212.022 153.5 209 156.522 209 160.25V273.75C209 277.478 212.022 280.5 215.75 280.5C219.478 280.5 222.5 277.478 222.5 273.75V160.25Z" fill="#0786F2"/>
<path opacity="0.15" d="M262 64.25C262 60.5221 258.978 57.5 255.25 57.5C251.522 57.5 248.5 60.5221 248.5 64.25V273.75C248.5 277.478 251.522 280.5 255.25 280.5C258.978 280.5 262 277.478 262 273.75V64.25Z" fill="#0786F2"/>
<path d="M262 79.25C262 75.5221 258.978 72.5 255.25 72.5C251.522 72.5 248.5 75.5221 248.5 79.25V273.75C248.5 277.478 251.522 280.5 255.25 280.5C258.978 280.5 262 277.478 262 273.75V79.25Z" fill="#0786F2"/>
<path opacity="0.15" d="M301.5 64.25C301.5 60.5221 298.478 57.5 294.75 57.5C291.022 57.5 288 60.5221 288 64.25V273.75C288 277.478 291.022 280.5 294.75 280.5C298.478 280.5 301.5 277.478 301.5 273.75V64.25Z" fill="#0786F2"/>
<path d="M301.5 205.25C301.5 201.522 298.478 198.5 294.75 198.5C291.022 198.5 288 201.522 288 205.25V273.75C288 277.478 291.022 280.5 294.75 280.5C298.478 280.5 301.5 277.478 301.5 273.75V205.25Z" fill="#0786F2"/>
</g>
<defs>
<filter id="filter0_d_37_1645" x="0" y="0" width="329" height="324" filterUnits="userSpaceOnUse" color-interpolation-filters="sRGB">
<feFlood flood-opacity="0" result="BackgroundImageFix"/>
<feColorMatrix in="SourceAlpha" type="matrix" values="0 0 0 0 0 0 0 0 0 0 0 0 0 0 0 0 0 0 127 0" result="hardAlpha"/>
<feOffset dy="4"/>
<feGaussianBlur stdDeviation="2"/>
<feComposite in2="hardAlpha" operator="out"/>
<feColorMatrix type="matrix" values="0 0 0 0 0 0 0 0 0 0 0 0 0 0 0 0 0 0 0.1 0"/>
<feBlend mode="normal" in2="BackgroundImageFix" result="effect1_dropShadow_37_1645"/>
<feBlend mode="normal" in="SourceGraphic" in2="effect1_dropShadow_37_1645" result="shape"/>
</filter>
</defs>
</svg>
