<svg width="295" height="225" viewBox="0 0 295 225" fill="none" xmlns="http://www.w3.org/2000/svg">
<g filter="url(#filter0_d_37_1706)">
<path d="M283.326 0H11.6738C7.43568 0 4 4.47715 4 10V207C4 212.523 7.43568 217 11.6738 217H283.326C287.564 217 291 212.523 291 207V10C291 4.47715 287.564 0 283.326 0Z" fill="white"/>
<path d="M33.05 21.395L29.375 28.475V32H26.795V28.475L23.12 21.395H26.06L28.1 25.715L30.14 21.395H33.05ZM37.9514 23.525C38.7814 23.525 39.5214 23.7 40.1714 24.05C40.8314 24.39 41.3464 24.885 41.7164 25.535C42.0964 26.185 42.2864 26.945 42.2864 27.815C42.2864 28.685 42.0964 29.445 41.7164 30.095C41.3464 30.745 40.8314 31.245 40.1714 31.595C39.5214 31.935 38.7814 32.105 37.9514 32.105C37.1214 32.105 36.3764 31.935 35.7164 31.595C35.0564 31.245 34.5364 30.745 34.1564 30.095C33.7864 29.445 33.6014 28.685 33.6014 27.815C33.6014 26.945 33.7864 26.185 34.1564 25.535C34.5364 24.885 35.0564 24.39 35.7164 24.05C36.3764 23.7 37.1214 23.525 37.9514 23.525ZM37.9514 25.745C37.4614 25.745 37.0464 25.925 36.7064 26.285C36.3764 26.635 36.2114 27.145 36.2114 27.815C36.2114 28.485 36.3764 28.995 36.7064 29.345C37.0464 29.695 37.4614 29.87 37.9514 29.87C38.4414 29.87 38.8514 29.695 39.1814 29.345C39.5114 28.995 39.6764 28.485 39.6764 27.815C39.6764 27.145 39.5114 26.635 39.1814 26.285C38.8514 25.925 38.4414 25.745 37.9514 25.745ZM51.9414 23.63V32H49.3614V30.485C49.1214 30.975 48.7614 31.365 48.2814 31.655C47.8114 31.945 47.2614 32.09 46.6314 32.09C45.6714 32.09 44.9064 31.77 44.3364 31.13C43.7764 30.49 43.4964 29.61 43.4964 28.49V23.63H46.0464V28.175C46.0464 28.745 46.1914 29.19 46.4814 29.51C46.7814 29.82 47.1814 29.975 47.6814 29.975C48.2014 29.975 48.6114 29.81 48.9114 29.48C49.2114 29.15 49.3614 28.68 49.3614 28.07V23.63H51.9414ZM56.2742 25.205C56.5942 24.695 57.0042 24.29 57.5042 23.99C58.0142 23.69 58.5642 23.54 59.1542 23.54V26.285H58.4192C57.7392 26.285 57.2092 26.43 56.8292 26.72C56.4592 27.01 56.2742 27.5 56.2742 28.19V32H53.7092V23.63H56.2742V25.205ZM65.7957 30.035H69.2157V32H63.2307V21.395H65.7957V30.035ZM78.3438 27.59C78.3438 27.8 78.3188 28.03 78.2688 28.28H72.4638C72.4938 28.91 72.6538 29.365 72.9438 29.645C73.2338 29.915 73.6038 30.05 74.0538 30.05C74.4338 30.05 74.7488 29.955 74.9988 29.765C75.2488 29.575 75.4138 29.33 75.4938 29.03H78.2088C78.0988 29.62 77.8588 30.15 77.4888 30.62C77.1188 31.08 76.6488 31.445 76.0788 31.715C75.5088 31.975 74.8738 32.105 74.1738 32.105C73.3538 32.105 72.6238 31.935 71.9838 31.595C71.3538 31.245 70.8588 30.745 70.4988 30.095C70.1388 29.445 69.9588 28.685 69.9588 27.815C69.9588 26.935 70.1338 26.175 70.4838 25.535C70.8438 24.885 71.3438 24.39 71.9838 24.05C72.6238 23.7 73.3538 23.525 74.1738 23.525C75.0038 23.525 75.7338 23.695 76.3638 24.035C76.9938 24.375 77.4788 24.855 77.8188 25.475C78.1688 26.085 78.3438 26.79 78.3438 27.59ZM75.7488 27.2C75.7588 26.65 75.6088 26.24 75.2988 25.97C74.9988 25.69 74.6238 25.55 74.1738 25.55C73.7038 25.55 73.3138 25.69 73.0038 25.97C72.6938 26.25 72.5188 26.66 72.4788 27.2H75.7488ZM83.5509 29.495L85.3659 23.63H88.0959L85.1259 32H81.9459L78.9759 23.63H81.7059L83.5509 29.495ZM97.1084 27.59C97.1084 27.8 97.0834 28.03 97.0334 28.28H91.2284C91.2584 28.91 91.4184 29.365 91.7084 29.645C91.9984 29.915 92.3684 30.05 92.8184 30.05C93.1984 30.05 93.5134 29.955 93.7634 29.765C94.0134 29.575 94.1784 29.33 94.2584 29.03H96.9734C96.8634 29.62 96.6234 30.15 96.2534 30.62C95.8834 31.08 95.4134 31.445 94.8434 31.715C94.2734 31.975 93.6384 32.105 92.9384 32.105C92.1184 32.105 91.3884 31.935 90.7484 31.595C90.1184 31.245 89.6234 30.745 89.2634 30.095C88.9034 29.445 88.7234 28.685 88.7234 27.815C88.7234 26.935 88.8984 26.175 89.2484 25.535C89.6084 24.885 90.1084 24.39 90.7484 24.05C91.3884 23.7 92.1184 23.525 92.9384 23.525C93.7684 23.525 94.4984 23.695 95.1284 24.035C95.7584 24.375 96.2434 24.855 96.5834 25.475C96.9334 26.085 97.1084 26.79 97.1084 27.59ZM94.5134 27.2C94.5234 26.65 94.3734 26.24 94.0634 25.97C93.7634 25.69 93.3884 25.55 92.9384 25.55C92.4684 25.55 92.0784 25.69 91.7684 25.97C91.4584 26.25 91.2834 26.66 91.2434 27.2H94.5134ZM101.011 20.9V32H98.4455V20.9H101.011Z" fill="#30336A"/>
<path d="M63.0131 157.528L60.1931 162.916V166H58.8131V162.916L55.9811 157.528H57.5651L59.5091 161.452L61.4531 157.528H63.0131ZM67.059 159.304C67.699 159.304 68.275 159.44 68.787 159.712C69.299 159.984 69.699 160.376 69.987 160.888C70.275 161.4 70.419 162 70.419 162.688C70.419 163.384 70.275 163.988 69.987 164.5C69.699 165.012 69.299 165.404 68.787 165.676C68.275 165.948 67.699 166.084 67.059 166.084C66.419 166.084 65.843 165.948 65.331 165.676C64.827 165.404 64.427 165.012 64.131 164.5C63.843 163.98 63.699 163.376 63.699 162.688C63.699 162 63.843 161.4 64.131 160.888C64.427 160.376 64.827 159.984 65.331 159.712C65.843 159.44 66.419 159.304 67.059 159.304ZM67.059 160.492C66.707 160.492 66.383 160.572 66.087 160.732C65.791 160.892 65.551 161.14 65.367 161.476C65.191 161.804 65.103 162.208 65.103 162.688C65.103 163.176 65.191 163.584 65.367 163.912C65.551 164.24 65.791 164.484 66.087 164.644C66.383 164.804 66.707 164.884 67.059 164.884C67.411 164.884 67.735 164.804 68.031 164.644C68.327 164.484 68.563 164.24 68.739 163.912C68.923 163.584 69.015 163.176 69.015 162.688C69.015 162.208 68.923 161.804 68.739 161.476C68.563 161.14 68.327 160.892 68.031 160.732C67.735 160.572 67.411 160.492 67.059 160.492ZM77.8303 159.388V166H76.4503V164.56C76.2823 165.048 75.9903 165.428 75.5743 165.7C75.1583 165.964 74.6743 166.096 74.1223 166.096C73.3543 166.096 72.7383 165.848 72.2743 165.352C71.8103 164.856 71.5783 164.148 71.5783 163.228V159.388H72.9463V163.084C72.9463 163.684 73.0983 164.148 73.4023 164.476C73.7063 164.796 74.1223 164.956 74.6503 164.956C75.1943 164.956 75.6303 164.78 75.9583 164.428C76.2863 164.076 76.4503 163.564 76.4503 162.892V159.388H77.8303ZM85.2211 159.304C86.0771 159.304 86.7851 159.532 87.3451 159.988C87.9051 160.436 88.2531 161.048 88.3891 161.824H86.9371C86.8571 161.408 86.6611 161.084 86.3491 160.852C86.0451 160.612 85.6611 160.492 85.1971 160.492C84.6691 160.492 84.2291 160.68 83.8771 161.056C83.5251 161.424 83.3491 161.968 83.3491 162.688C83.3491 163.408 83.5251 163.956 83.8771 164.332C84.2291 164.708 84.6691 164.896 85.1971 164.896C85.6611 164.896 86.0451 164.776 86.3491 164.536C86.6611 164.296 86.8571 163.968 86.9371 163.552H88.3891C88.2531 164.328 87.9051 164.944 87.3451 165.4C86.7851 165.856 86.0771 166.084 85.2211 166.084C84.5811 166.084 84.0131 165.948 83.5171 165.676C83.0291 165.404 82.6451 165.012 82.3651 164.5C82.0851 163.988 81.9451 163.384 81.9451 162.688C81.9451 162 82.0851 161.4 82.3651 160.888C82.6451 160.376 83.0291 159.984 83.5171 159.712C84.0131 159.44 84.5811 159.304 85.2211 159.304ZM92.3628 159.304C92.9628 159.304 93.4748 159.452 93.8988 159.748C94.3228 160.044 94.6228 160.436 94.7988 160.924V159.388H96.1668V166H94.7988V164.464C94.6228 164.952 94.3228 165.344 93.8988 165.64C93.4748 165.936 92.9628 166.084 92.3628 166.084C91.7868 166.084 91.2708 165.948 90.8148 165.676C90.3668 165.404 90.0148 165.012 89.7588 164.5C89.5028 163.988 89.3748 163.384 89.3748 162.688C89.3748 162 89.5028 161.4 89.7588 160.888C90.0148 160.376 90.3668 159.984 90.8148 159.712C91.2708 159.44 91.7868 159.304 92.3628 159.304ZM92.7828 160.504C92.1748 160.504 91.6868 160.7 91.3188 161.092C90.9588 161.476 90.7788 162.008 90.7788 162.688C90.7788 163.368 90.9588 163.904 91.3188 164.296C91.6868 164.68 92.1748 164.872 92.7828 164.872C93.1668 164.872 93.5108 164.784 93.8148 164.608C94.1188 164.424 94.3588 164.168 94.5348 163.84C94.7108 163.512 94.7988 163.128 94.7988 162.688C94.7988 162.256 94.7108 161.876 94.5348 161.548C94.3588 161.212 94.1188 160.956 93.8148 160.78C93.5108 160.596 93.1668 160.504 92.7828 160.504ZM101.504 159.28C102.272 159.28 102.888 159.528 103.352 160.024C103.816 160.52 104.048 161.228 104.048 162.148V166H102.68V162.292C102.68 161.7 102.528 161.244 102.224 160.924C101.92 160.596 101.504 160.432 100.976 160.432C100.432 160.432 99.9965 160.608 99.6685 160.96C99.3405 161.304 99.1765 161.812 99.1765 162.484V166H97.8085V159.388H99.1765V160.84C99.3525 160.344 99.6485 159.96 100.064 159.688C100.48 159.416 100.96 159.28 101.504 159.28ZM114.557 159.388V166H113.177V164.56C113.009 165.048 112.717 165.428 112.301 165.7C111.885 165.964 111.401 166.096 110.849 166.096C110.081 166.096 109.465 165.848 109.001 165.352C108.537 164.856 108.305 164.148 108.305 163.228V159.388H109.673V163.084C109.673 163.684 109.825 164.148 110.129 164.476C110.433 164.796 110.849 164.956 111.377 164.956C111.921 164.956 112.357 164.78 112.685 164.428C113.013 164.076 113.177 163.564 113.177 162.892V159.388H114.557ZM119.987 159.304C120.563 159.304 121.075 159.44 121.523 159.712C121.979 159.984 122.335 160.376 122.591 160.888C122.847 161.4 122.975 162 122.975 162.688C122.975 163.384 122.847 163.988 122.591 164.5C122.335 165.012 121.979 165.404 121.523 165.676C121.075 165.948 120.563 166.084 119.987 166.084C119.387 166.084 118.875 165.936 118.451 165.64C118.027 165.344 117.731 164.952 117.563 164.464V169.144H116.195V159.388H117.563V160.924C117.731 160.436 118.027 160.044 118.451 159.748C118.875 159.452 119.387 159.304 119.987 159.304ZM119.567 160.504C119.183 160.504 118.839 160.596 118.535 160.78C118.231 160.956 117.991 161.212 117.815 161.548C117.639 161.876 117.551 162.256 117.551 162.688C117.551 163.128 117.639 163.512 117.815 163.84C117.991 164.168 118.231 164.424 118.535 164.608C118.839 164.784 119.183 164.872 119.567 164.872C120.175 164.872 120.663 164.68 121.031 164.296C121.399 163.904 121.583 163.368 121.583 162.688C121.583 162.016 121.399 161.484 121.031 161.092C120.663 160.7 120.175 160.504 119.567 160.504ZM130.429 164.812V166H129.589C128.885 166 128.349 165.832 127.981 165.496C127.621 165.152 127.441 164.584 127.441 163.792V160.552H126.493V159.388H127.441V157.744H128.821V159.388H130.417V160.552H128.821V163.816C128.821 164.192 128.889 164.452 129.025 164.596C129.169 164.74 129.417 164.812 129.769 164.812H130.429ZM134.735 159.304C135.375 159.304 135.951 159.44 136.463 159.712C136.975 159.984 137.375 160.376 137.663 160.888C137.951 161.4 138.095 162 138.095 162.688C138.095 163.384 137.951 163.988 137.663 164.5C137.375 165.012 136.975 165.404 136.463 165.676C135.951 165.948 135.375 166.084 134.735 166.084C134.095 166.084 133.519 165.948 133.007 165.676C132.503 165.404 132.103 165.012 131.807 164.5C131.519 163.98 131.375 163.376 131.375 162.688C131.375 162 131.519 161.4 131.807 160.888C132.103 160.376 132.503 159.984 133.007 159.712C133.519 159.44 134.095 159.304 134.735 159.304ZM134.735 160.492C134.383 160.492 134.059 160.572 133.763 160.732C133.467 160.892 133.227 161.14 133.043 161.476C132.867 161.804 132.779 162.208 132.779 162.688C132.779 163.176 132.867 163.584 133.043 163.912C133.227 164.24 133.467 164.484 133.763 164.644C134.059 164.804 134.383 164.884 134.735 164.884C135.087 164.884 135.411 164.804 135.707 164.644C136.003 164.484 136.239 164.24 136.415 163.912C136.599 163.584 136.691 163.176 136.691 162.688C136.691 162.208 136.599 161.804 136.415 161.476C136.239 161.14 136.003 160.892 135.707 160.732C135.411 160.572 135.087 160.492 134.735 160.492ZM145.547 164.812V166H144.707C144.003 166 143.467 165.832 143.099 165.496C142.739 165.152 142.559 164.584 142.559 163.792V160.552H141.611V159.388H142.559V157.744H143.939V159.388H145.535V160.552H143.939V163.816C143.939 164.192 144.007 164.452 144.143 164.596C144.287 164.74 144.535 164.812 144.887 164.812H145.547ZM150.524 159.28C151.292 159.28 151.908 159.528 152.372 160.024C152.836 160.52 153.068 161.228 153.068 162.148V166H151.7V162.292C151.7 161.7 151.548 161.244 151.244 160.924C150.94 160.596 150.524 160.432 149.996 160.432C149.452 160.432 149.016 160.608 148.688 160.96C148.36 161.304 148.196 161.812 148.196 162.484V166H146.828V157.12H148.196V160.84C148.372 160.344 148.668 159.96 149.084 159.688C149.5 159.416 149.98 159.28 150.524 159.28ZM160.812 162.376C160.812 162.6 160.796 162.796 160.764 162.964H155.676C155.7 163.644 155.888 164.148 156.24 164.476C156.592 164.804 157.028 164.968 157.548 164.968C158.004 164.968 158.388 164.852 158.7 164.62C159.02 164.388 159.216 164.08 159.288 163.696H160.752C160.664 164.16 160.48 164.572 160.2 164.932C159.92 165.292 159.556 165.576 159.108 165.784C158.66 165.984 158.16 166.084 157.608 166.084C156.968 166.084 156.4 165.948 155.904 165.676C155.416 165.404 155.032 165.012 154.752 164.5C154.472 163.988 154.332 163.384 154.332 162.688C154.332 162 154.472 161.4 154.752 160.888C155.032 160.376 155.416 159.984 155.904 159.712C156.4 159.44 156.968 159.304 157.608 159.304C158.256 159.304 158.82 159.44 159.3 159.712C159.788 159.976 160.16 160.344 160.416 160.816C160.68 161.28 160.812 161.8 160.812 162.376ZM159.432 162.34C159.448 161.908 159.372 161.548 159.204 161.26C159.044 160.964 158.82 160.748 158.532 160.612C158.252 160.468 157.944 160.396 157.608 160.396C157.072 160.396 156.624 160.56 156.264 160.888C155.904 161.216 155.708 161.7 155.676 162.34H159.432ZM168.641 159.28C169.409 159.28 170.025 159.528 170.489 160.024C170.953 160.52 171.185 161.228 171.185 162.148V166H169.817V162.292C169.817 161.7 169.665 161.244 169.361 160.924C169.057 160.596 168.641 160.432 168.113 160.432C167.569 160.432 167.133 160.608 166.805 160.96C166.477 161.304 166.313 161.812 166.313 162.484V166H164.945V159.388H166.313V160.84C166.489 160.344 166.785 159.96 167.201 159.688C167.617 159.416 168.097 159.28 168.641 159.28ZM178.929 162.376C178.929 162.6 178.913 162.796 178.881 162.964H173.793C173.817 163.644 174.005 164.148 174.357 164.476C174.709 164.804 175.145 164.968 175.665 164.968C176.121 164.968 176.505 164.852 176.817 164.62C177.137 164.388 177.333 164.08 177.405 163.696H178.869C178.781 164.16 178.597 164.572 178.317 164.932C178.037 165.292 177.673 165.576 177.225 165.784C176.777 165.984 176.277 166.084 175.725 166.084C175.085 166.084 174.517 165.948 174.021 165.676C173.533 165.404 173.149 165.012 172.869 164.5C172.589 163.988 172.449 163.384 172.449 162.688C172.449 162 172.589 161.4 172.869 160.888C173.149 160.376 173.533 159.984 174.021 159.712C174.517 159.44 175.085 159.304 175.725 159.304C176.373 159.304 176.937 159.44 177.417 159.712C177.905 159.976 178.277 160.344 178.533 160.816C178.797 161.28 178.929 161.8 178.929 162.376ZM177.549 162.34C177.565 161.908 177.489 161.548 177.321 161.26C177.161 160.964 176.937 160.748 176.649 160.612C176.369 160.468 176.061 160.396 175.725 160.396C175.189 160.396 174.741 160.56 174.381 160.888C174.021 161.216 173.825 161.7 173.793 162.34H177.549ZM184.162 166L182.542 163.66L181.126 166H179.602L181.786 162.568L179.578 159.388H181.126L182.71 161.668L184.114 159.388H185.626L183.442 162.724L185.71 166H184.162ZM189.984 164.812V166H189.144C188.44 166 187.904 165.832 187.536 165.496C187.176 165.152 186.996 164.584 186.996 163.792V160.552H186.048V159.388H186.996V157.744H188.376V159.388H189.972V160.552H188.376V163.816C188.376 164.192 188.444 164.452 188.58 164.596C188.724 164.74 188.972 164.812 189.324 164.812H189.984ZM195.446 157.12V166H194.078V157.12H195.446ZM203.245 162.376C203.245 162.6 203.229 162.796 203.197 162.964H198.109C198.133 163.644 198.321 164.148 198.673 164.476C199.025 164.804 199.461 164.968 199.981 164.968C200.437 164.968 200.821 164.852 201.133 164.62C201.453 164.388 201.649 164.08 201.721 163.696H203.185C203.097 164.16 202.913 164.572 202.633 164.932C202.353 165.292 201.989 165.576 201.541 165.784C201.093 165.984 200.593 166.084 200.041 166.084C199.401 166.084 198.833 165.948 198.337 165.676C197.849 165.404 197.465 165.012 197.185 164.5C196.905 163.988 196.765 163.384 196.765 162.688C196.765 162 196.905 161.4 197.185 160.888C197.465 160.376 197.849 159.984 198.337 159.712C198.833 159.44 199.401 159.304 200.041 159.304C200.689 159.304 201.253 159.44 201.733 159.712C202.221 159.976 202.593 160.344 202.849 160.816C203.113 161.28 203.245 161.8 203.245 162.376ZM201.865 162.34C201.881 161.908 201.805 161.548 201.637 161.26C201.477 160.964 201.253 160.748 200.965 160.612C200.685 160.468 200.377 160.396 200.041 160.396C199.505 160.396 199.057 160.56 198.697 160.888C198.337 161.216 198.141 161.7 198.109 162.34H201.865ZM207.278 164.584L209.15 159.388H210.614L208.094 166H206.438L203.918 159.388H205.382L207.278 164.584ZM217.765 162.376C217.765 162.6 217.749 162.796 217.717 162.964H212.629C212.653 163.644 212.841 164.148 213.193 164.476C213.545 164.804 213.981 164.968 214.501 164.968C214.957 164.968 215.341 164.852 215.653 164.62C215.973 164.388 216.169 164.08 216.241 163.696H217.705C217.617 164.16 217.433 164.572 217.153 164.932C216.873 165.292 216.509 165.576 216.061 165.784C215.613 165.984 215.113 166.084 214.561 166.084C213.921 166.084 213.353 165.948 212.857 165.676C212.369 165.404 211.985 165.012 211.705 164.5C211.425 163.988 211.285 163.384 211.285 162.688C211.285 162 211.425 161.4 211.705 160.888C211.985 160.376 212.369 159.984 212.857 159.712C213.353 159.44 213.921 159.304 214.561 159.304C215.209 159.304 215.773 159.44 216.253 159.712C216.741 159.976 217.113 160.344 217.369 160.816C217.633 161.28 217.765 161.8 217.765 162.376ZM216.385 162.34C216.401 161.908 216.325 161.548 216.157 161.26C215.997 160.964 215.773 160.748 215.485 160.612C215.205 160.468 214.897 160.396 214.561 160.396C214.025 160.396 213.577 160.56 213.217 160.888C212.857 161.216 212.661 161.7 212.629 162.34H216.385ZM220.454 157.12V166H219.086V157.12H220.454ZM228.714 159.304C229.29 159.304 229.802 159.44 230.25 159.712C230.706 159.984 231.062 160.376 231.318 160.888C231.574 161.4 231.702 162 231.702 162.688C231.702 163.384 231.574 163.988 231.318 164.5C231.062 165.012 230.706 165.404 230.25 165.676C229.802 165.948 229.29 166.084 228.714 166.084C228.114 166.084 227.602 165.936 227.178 165.64C226.754 165.344 226.458 164.952 226.29 164.464V166H224.922V157.12H226.29V160.924C226.458 160.436 226.754 160.044 227.178 159.748C227.602 159.452 228.114 159.304 228.714 159.304ZM228.294 160.504C227.91 160.504 227.566 160.596 227.262 160.78C226.958 160.956 226.718 161.212 226.542 161.548C226.366 161.876 226.278 162.256 226.278 162.688C226.278 163.128 226.366 163.512 226.542 163.84C226.718 164.168 226.958 164.424 227.262 164.608C227.566 164.784 227.91 164.872 228.294 164.872C228.902 164.872 229.39 164.68 229.758 164.296C230.126 163.904 230.31 163.368 230.31 162.688C230.31 162.016 230.126 161.484 229.758 161.092C229.39 160.7 228.902 160.504 228.294 160.504ZM233.799 159.388L235.779 164.248L237.615 159.388H239.139L235.143 169.144H233.619L235.047 165.844L232.263 159.388H233.799ZM50.6855 177.304C51.4615 177.304 52.0815 177.504 52.5455 177.904C53.0175 178.296 53.3055 178.824 53.4095 179.488H52.1135C52.0575 179.128 51.9015 178.84 51.6455 178.624C51.3975 178.4 51.0655 178.288 50.6495 178.288C50.3055 178.288 50.0375 178.372 49.8455 178.54C49.6615 178.7 49.5695 178.92 49.5695 179.2C49.5695 179.408 49.6375 179.576 49.7735 179.704C49.9095 179.832 50.0775 179.932 50.2775 180.004C50.4855 180.076 50.7775 180.156 51.1535 180.244C51.6495 180.356 52.0495 180.472 52.3535 180.592C52.6655 180.712 52.9295 180.904 53.1455 181.168C53.3695 181.424 53.4815 181.776 53.4815 182.224C53.4815 182.776 53.2695 183.224 52.8455 183.568C52.4295 183.912 51.8655 184.084 51.1535 184.084C50.3295 184.084 49.6615 183.892 49.1495 183.508C48.6455 183.124 48.3415 182.588 48.2375 181.9H49.5695C49.6095 182.26 49.7695 182.552 50.0495 182.776C50.3295 183 50.6975 183.112 51.1535 183.112C51.4815 183.112 51.7375 183.028 51.9215 182.86C52.1135 182.684 52.2095 182.464 52.2095 182.2C52.2095 181.968 52.1375 181.784 51.9935 181.648C51.8495 181.512 51.6695 181.408 51.4535 181.336C51.2375 181.256 50.9415 181.176 50.5655 181.096C50.0855 180.984 49.6935 180.872 49.3895 180.76C49.0935 180.648 48.8375 180.468 48.6215 180.22C48.4135 179.964 48.3095 179.62 48.3095 179.188C48.3095 178.628 48.5175 178.176 48.9335 177.832C49.3575 177.48 49.9415 177.304 50.6855 177.304ZM58.1774 182.812V184H57.3374C56.6334 184 56.0974 183.832 55.7294 183.496C55.3694 183.152 55.1894 182.584 55.1894 181.792V178.552H54.2414V177.388H55.1894V175.744H56.5694V177.388H58.1654V178.552H56.5694V181.816C56.5694 182.192 56.6374 182.452 56.7734 182.596C56.9174 182.74 57.1654 182.812 57.5174 182.812H58.1774ZM65.5549 177.388V184H64.1749V182.56C64.0069 183.048 63.7149 183.428 63.2989 183.7C62.8829 183.964 62.3989 184.096 61.8469 184.096C61.0789 184.096 60.4629 183.848 59.9989 183.352C59.5349 182.856 59.3029 182.148 59.3029 181.228V177.388H60.6709V181.084C60.6709 181.684 60.8229 182.148 61.1269 182.476C61.4309 182.796 61.8469 182.956 62.3749 182.956C62.9189 182.956 63.3549 182.78 63.6829 182.428C64.0109 182.076 64.1749 181.564 64.1749 180.892V177.388H65.5549ZM69.8452 177.304C70.4452 177.304 70.9572 177.452 71.3812 177.748C71.8052 178.044 72.1012 178.436 72.2692 178.924V175.12H73.6492V184H72.2692V182.464C72.1012 182.952 71.8052 183.344 71.3812 183.64C70.9572 183.936 70.4452 184.084 69.8452 184.084C69.2692 184.084 68.7532 183.948 68.2972 183.676C67.8492 183.404 67.4972 183.012 67.2412 182.5C66.9852 181.988 66.8572 181.384 66.8572 180.688C66.8572 180 66.9852 179.4 67.2412 178.888C67.4972 178.376 67.8492 177.984 68.2972 177.712C68.7532 177.44 69.2692 177.304 69.8452 177.304ZM70.2652 178.504C69.6572 178.504 69.1692 178.7 68.8012 179.092C68.4412 179.476 68.2612 180.008 68.2612 180.688C68.2612 181.368 68.4412 181.904 68.8012 182.296C69.1692 182.68 69.6572 182.872 70.2652 182.872C70.6492 182.872 70.9932 182.784 71.2972 182.608C71.6012 182.424 71.8412 182.168 72.0172 181.84C72.1932 181.512 72.2812 181.128 72.2812 180.688C72.2812 180.256 72.1932 179.876 72.0172 179.548C71.8412 179.212 71.6012 178.956 71.2972 178.78C70.9932 178.596 70.6492 178.504 70.2652 178.504ZM76.0709 177.388L78.0509 182.248L79.8869 177.388H81.4109L77.4149 187.144H75.8909L77.3189 183.844L74.5349 177.388H76.0709ZM82.1184 175.468C82.1184 175.236 82.1984 175.044 82.3584 174.892C82.5184 174.74 82.7304 174.664 82.9944 174.664C83.2584 174.664 83.4704 174.74 83.6304 174.892C83.7984 175.044 83.8824 175.236 83.8824 175.468C83.8824 175.7 83.7984 175.888 83.6304 176.032C83.4704 176.176 83.2584 176.248 82.9944 176.248C82.7304 176.248 82.5184 176.176 82.3584 176.032C82.1984 175.888 82.1184 175.7 82.1184 175.468ZM83.6784 177.388V184H82.3104V177.388H83.6784ZM89.0299 177.28C89.7979 177.28 90.4139 177.528 90.8779 178.024C91.3419 178.52 91.5739 179.228 91.5739 180.148V184H90.2059V180.292C90.2059 179.7 90.0539 179.244 89.7499 178.924C89.4459 178.596 89.0299 178.432 88.5019 178.432C87.9579 178.432 87.5219 178.608 87.1939 178.96C86.8659 179.304 86.7019 179.812 86.7019 180.484V184H85.3339V177.388H86.7019V178.84C86.8779 178.344 87.1739 177.96 87.5899 177.688C88.0059 177.416 88.4859 177.28 89.0299 177.28ZM95.8257 177.304C96.4257 177.304 96.9377 177.452 97.3617 177.748C97.7857 178.044 98.0857 178.436 98.2617 178.924V177.388H99.6297V184.072C99.6297 184.688 99.5017 185.232 99.2457 185.704C98.9977 186.184 98.6377 186.56 98.1657 186.832C97.6937 187.104 97.1337 187.24 96.4857 187.24C95.5577 187.24 94.8057 187.02 94.2297 186.58C93.6617 186.14 93.3057 185.544 93.1617 184.792H94.5177C94.6297 185.184 94.8457 185.488 95.1657 185.704C95.4857 185.928 95.8937 186.04 96.3897 186.04C96.9337 186.04 97.3817 185.872 97.7337 185.536C98.0857 185.2 98.2617 184.712 98.2617 184.072V182.464C98.0857 182.952 97.7857 183.344 97.3617 183.64C96.9377 183.936 96.4257 184.084 95.8257 184.084C95.2497 184.084 94.7337 183.948 94.2777 183.676C93.8297 183.404 93.4777 183.012 93.2217 182.5C92.9657 181.988 92.8377 181.384 92.8377 180.688C92.8377 180 92.9657 179.4 93.2217 178.888C93.4777 178.376 93.8297 177.984 94.2777 177.712C94.7337 177.44 95.2497 177.304 95.8257 177.304ZM96.2457 178.504C95.6377 178.504 95.1497 178.7 94.7817 179.092C94.4217 179.476 94.2417 180.008 94.2417 180.688C94.2417 181.368 94.4217 181.904 94.7817 182.296C95.1497 182.68 95.6377 182.872 96.2457 182.872C96.6297 182.872 96.9737 182.784 97.2777 182.608C97.5817 182.424 97.8217 182.168 97.9977 181.84C98.1737 181.512 98.2617 181.128 98.2617 180.688C98.2617 180.256 98.1737 179.876 97.9977 179.548C97.8217 179.212 97.5817 178.956 97.2777 178.78C96.9737 178.596 96.6297 178.504 96.2457 178.504ZM109.748 176.608H105.56V179.128C105.752 178.88 106.024 178.684 106.376 178.54C106.728 178.388 107.116 178.312 107.54 178.312C108.132 178.312 108.624 178.44 109.016 178.696C109.408 178.944 109.696 179.276 109.88 179.692C110.072 180.108 110.168 180.568 110.168 181.072C110.168 181.96 109.92 182.68 109.424 183.232C108.928 183.776 108.208 184.048 107.264 184.048C106.376 184.048 105.66 183.812 105.116 183.34C104.572 182.868 104.276 182.24 104.228 181.456H105.572C105.644 181.888 105.82 182.228 106.1 182.476C106.388 182.724 106.752 182.848 107.192 182.848C107.736 182.848 108.144 182.684 108.416 182.356C108.688 182.028 108.824 181.592 108.824 181.048C108.824 180.536 108.684 180.136 108.404 179.848C108.124 179.552 107.724 179.404 107.204 179.404C106.836 179.404 106.512 179.484 106.232 179.644C105.96 179.804 105.76 180.016 105.632 180.28H104.3V175.396H109.748V176.608ZM115.753 175.12V184H114.385V175.12H115.753ZM123.552 180.376C123.552 180.6 123.536 180.796 123.504 180.964H118.416C118.44 181.644 118.628 182.148 118.98 182.476C119.332 182.804 119.768 182.968 120.288 182.968C120.744 182.968 121.128 182.852 121.44 182.62C121.76 182.388 121.956 182.08 122.028 181.696H123.492C123.404 182.16 123.22 182.572 122.94 182.932C122.66 183.292 122.296 183.576 121.848 183.784C121.4 183.984 120.9 184.084 120.348 184.084C119.708 184.084 119.14 183.948 118.644 183.676C118.156 183.404 117.772 183.012 117.492 182.5C117.212 181.988 117.072 181.384 117.072 180.688C117.072 180 117.212 179.4 117.492 178.888C117.772 178.376 118.156 177.984 118.644 177.712C119.14 177.44 119.708 177.304 120.348 177.304C120.996 177.304 121.56 177.44 122.04 177.712C122.528 177.976 122.9 178.344 123.156 178.816C123.42 179.28 123.552 179.8 123.552 180.376ZM122.172 180.34C122.188 179.908 122.112 179.548 121.944 179.26C121.784 178.964 121.56 178.748 121.272 178.612C120.992 178.468 120.684 178.396 120.348 178.396C119.812 178.396 119.364 178.56 119.004 178.888C118.644 179.216 118.448 179.7 118.416 180.34H122.172ZM127.045 177.304C127.821 177.304 128.441 177.504 128.905 177.904C129.377 178.296 129.665 178.824 129.769 179.488H128.473C128.417 179.128 128.261 178.84 128.005 178.624C127.757 178.4 127.425 178.288 127.009 178.288C126.665 178.288 126.397 178.372 126.205 178.54C126.021 178.7 125.929 178.92 125.929 179.2C125.929 179.408 125.997 179.576 126.133 179.704C126.269 179.832 126.437 179.932 126.637 180.004C126.845 180.076 127.137 180.156 127.513 180.244C128.009 180.356 128.409 180.472 128.713 180.592C129.025 180.712 129.289 180.904 129.505 181.168C129.729 181.424 129.841 181.776 129.841 182.224C129.841 182.776 129.629 183.224 129.205 183.568C128.789 183.912 128.225 184.084 127.513 184.084C126.689 184.084 126.021 183.892 125.509 183.508C125.005 183.124 124.701 182.588 124.597 181.9H125.929C125.969 182.26 126.129 182.552 126.409 182.776C126.689 183 127.057 183.112 127.513 183.112C127.841 183.112 128.097 183.028 128.281 182.86C128.473 182.684 128.569 182.464 128.569 182.2C128.569 181.968 128.497 181.784 128.353 181.648C128.209 181.512 128.029 181.408 127.813 181.336C127.597 181.256 127.301 181.176 126.925 181.096C126.445 180.984 126.053 180.872 125.749 180.76C125.453 180.648 125.197 180.468 124.981 180.22C124.773 179.964 124.669 179.62 124.669 179.188C124.669 178.628 124.877 178.176 125.293 177.832C125.717 177.48 126.301 177.304 127.045 177.304ZM133.385 177.304C134.161 177.304 134.781 177.504 135.245 177.904C135.717 178.296 136.005 178.824 136.109 179.488H134.813C134.757 179.128 134.601 178.84 134.345 178.624C134.097 178.4 133.765 178.288 133.349 178.288C133.005 178.288 132.737 178.372 132.545 178.54C132.361 178.7 132.269 178.92 132.269 179.2C132.269 179.408 132.337 179.576 132.473 179.704C132.609 179.832 132.777 179.932 132.977 180.004C133.185 180.076 133.477 180.156 133.853 180.244C134.349 180.356 134.749 180.472 135.053 180.592C135.365 180.712 135.629 180.904 135.845 181.168C136.069 181.424 136.181 181.776 136.181 182.224C136.181 182.776 135.969 183.224 135.545 183.568C135.129 183.912 134.565 184.084 133.853 184.084C133.029 184.084 132.361 183.892 131.849 183.508C131.345 183.124 131.041 182.588 130.937 181.9H132.269C132.309 182.26 132.469 182.552 132.749 182.776C133.029 183 133.397 183.112 133.853 183.112C134.181 183.112 134.437 183.028 134.621 182.86C134.813 182.684 134.909 182.464 134.909 182.2C134.909 181.968 134.837 181.784 134.693 181.648C134.549 181.512 134.369 181.408 134.153 181.336C133.937 181.256 133.641 181.176 133.265 181.096C132.785 180.984 132.393 180.872 132.089 180.76C131.793 180.648 131.537 180.468 131.321 180.22C131.113 179.964 131.009 179.62 131.009 179.188C131.009 178.628 131.217 178.176 131.633 177.832C132.057 177.48 132.641 177.304 133.385 177.304ZM140.577 177.304C141.217 177.304 141.793 177.44 142.305 177.712C142.817 177.984 143.217 178.376 143.505 178.888C143.793 179.4 143.937 180 143.937 180.688C143.937 181.384 143.793 181.988 143.505 182.5C143.217 183.012 142.817 183.404 142.305 183.676C141.793 183.948 141.217 184.084 140.577 184.084C139.937 184.084 139.361 183.948 138.849 183.676C138.345 183.404 137.945 183.012 137.649 182.5C137.361 181.98 137.217 181.376 137.217 180.688C137.217 180 137.361 179.4 137.649 178.888C137.945 178.376 138.345 177.984 138.849 177.712C139.361 177.44 139.937 177.304 140.577 177.304ZM140.577 178.492C140.225 178.492 139.901 178.572 139.605 178.732C139.309 178.892 139.069 179.14 138.885 179.476C138.709 179.804 138.621 180.208 138.621 180.688C138.621 181.176 138.709 181.584 138.885 181.912C139.069 182.24 139.309 182.484 139.605 182.644C139.901 182.804 140.225 182.884 140.577 182.884C140.929 182.884 141.253 182.804 141.549 182.644C141.845 182.484 142.081 182.24 142.257 181.912C142.441 181.584 142.533 181.176 142.533 180.688C142.533 180.208 142.441 179.804 142.257 179.476C142.081 179.14 141.845 178.892 141.549 178.732C141.253 178.572 140.929 178.492 140.577 178.492ZM148.948 177.28C149.716 177.28 150.332 177.528 150.796 178.024C151.26 178.52 151.492 179.228 151.492 180.148V184H150.124V180.292C150.124 179.7 149.972 179.244 149.668 178.924C149.364 178.596 148.948 178.432 148.42 178.432C147.876 178.432 147.44 178.608 147.112 178.96C146.784 179.304 146.62 179.812 146.62 180.484V184H145.252V177.388H146.62V178.84C146.796 178.344 147.092 177.96 147.508 177.688C147.924 177.416 148.404 177.28 148.948 177.28ZM155.264 177.304C156.04 177.304 156.66 177.504 157.124 177.904C157.596 178.296 157.884 178.824 157.988 179.488H156.692C156.636 179.128 156.48 178.84 156.224 178.624C155.976 178.4 155.644 178.288 155.228 178.288C154.884 178.288 154.616 178.372 154.424 178.54C154.24 178.7 154.148 178.92 154.148 179.2C154.148 179.408 154.216 179.576 154.352 179.704C154.488 179.832 154.656 179.932 154.856 180.004C155.064 180.076 155.356 180.156 155.732 180.244C156.228 180.356 156.628 180.472 156.932 180.592C157.244 180.712 157.508 180.904 157.724 181.168C157.948 181.424 158.06 181.776 158.06 182.224C158.06 182.776 157.848 183.224 157.424 183.568C157.008 183.912 156.444 184.084 155.732 184.084C154.908 184.084 154.24 183.892 153.728 183.508C153.224 183.124 152.92 182.588 152.816 181.9H154.148C154.188 182.26 154.348 182.552 154.628 182.776C154.908 183 155.276 183.112 155.732 183.112C156.06 183.112 156.316 183.028 156.5 182.86C156.692 182.684 156.788 182.464 156.788 182.2C156.788 181.968 156.716 181.784 156.572 181.648C156.428 181.512 156.248 181.408 156.032 181.336C155.816 181.256 155.52 181.176 155.144 181.096C154.664 180.984 154.272 180.872 153.968 180.76C153.672 180.648 153.416 180.468 153.2 180.22C152.992 179.964 152.888 179.62 152.888 179.188C152.888 178.628 153.096 178.176 153.512 177.832C153.936 177.48 154.52 177.304 155.264 177.304ZM168.172 184L166.588 182.212C166.58 182.292 166.54 182.432 166.468 182.632C166.356 183.064 166.112 183.416 165.736 183.688C165.368 183.952 164.928 184.084 164.416 184.084C163.896 184.084 163.44 183.976 163.048 183.76C162.656 183.544 162.352 183.244 162.136 182.86C161.92 182.476 161.812 182.036 161.812 181.54C161.812 181.036 161.908 180.6 162.1 180.232C162.3 179.864 162.568 179.584 162.904 179.392C163.24 179.2 163.612 179.104 164.02 179.104H164.104L163.948 178.888C163.756 178.648 163.608 178.412 163.504 178.18C163.4 177.94 163.348 177.672 163.348 177.376C163.348 177.04 163.432 176.724 163.6 176.428C163.776 176.132 164.032 175.896 164.368 175.72C164.712 175.536 165.12 175.444 165.592 175.444C166.296 175.444 166.832 175.612 167.2 175.948C167.576 176.284 167.812 176.708 167.908 177.22C167.98 177.484 168.008 177.768 167.992 178.072H166.696V177.94C166.696 177.82 166.692 177.732 166.684 177.676C166.676 177.34 166.576 177.076 166.384 176.884C166.2 176.692 165.944 176.596 165.616 176.596C165.312 176.596 165.072 176.684 164.896 176.86C164.728 177.036 164.644 177.252 164.644 177.508C164.644 177.724 164.684 177.912 164.764 178.072C164.852 178.232 164.984 178.42 165.16 178.636L169.576 184H168.172ZM164.428 182.92C164.82 182.92 165.14 182.796 165.388 182.548C165.644 182.3 165.772 181.98 165.772 181.588C165.772 181.316 165.7 181.072 165.556 180.856C165.42 180.632 165.236 180.46 165.004 180.34C164.78 180.212 164.544 180.148 164.296 180.148C163.912 180.148 163.6 180.268 163.36 180.508C163.12 180.74 163 181.072 163 181.504C163 181.944 163.136 182.292 163.408 182.548C163.688 182.796 164.028 182.92 164.428 182.92ZM175.923 177.304C176.523 177.304 177.035 177.452 177.459 177.748C177.883 178.044 178.179 178.436 178.347 178.924V175.12H179.727V184H178.347V182.464C178.179 182.952 177.883 183.344 177.459 183.64C177.035 183.936 176.523 184.084 175.923 184.084C175.347 184.084 174.831 183.948 174.375 183.676C173.927 183.404 173.575 183.012 173.319 182.5C173.063 181.988 172.935 181.384 172.935 180.688C172.935 180 173.063 179.4 173.319 178.888C173.575 178.376 173.927 177.984 174.375 177.712C174.831 177.44 175.347 177.304 175.923 177.304ZM176.343 178.504C175.735 178.504 175.247 178.7 174.879 179.092C174.519 179.476 174.339 180.008 174.339 180.688C174.339 181.368 174.519 181.904 174.879 182.296C175.247 182.68 175.735 182.872 176.343 182.872C176.727 182.872 177.071 182.784 177.375 182.608C177.679 182.424 177.919 182.168 178.095 181.84C178.271 181.512 178.359 181.128 178.359 180.688C178.359 180.256 178.271 179.876 178.095 179.548C177.919 179.212 177.679 178.956 177.375 178.78C177.071 178.596 176.727 178.504 176.343 178.504ZM184.393 177.304C185.033 177.304 185.609 177.44 186.121 177.712C186.633 177.984 187.033 178.376 187.321 178.888C187.609 179.4 187.753 180 187.753 180.688C187.753 181.384 187.609 181.988 187.321 182.5C187.033 183.012 186.633 183.404 186.121 183.676C185.609 183.948 185.033 184.084 184.393 184.084C183.753 184.084 183.177 183.948 182.665 183.676C182.161 183.404 181.761 183.012 181.465 182.5C181.177 181.98 181.033 181.376 181.033 180.688C181.033 180 181.177 179.4 181.465 178.888C181.761 178.376 182.161 177.984 182.665 177.712C183.177 177.44 183.753 177.304 184.393 177.304ZM184.393 178.492C184.041 178.492 183.717 178.572 183.421 178.732C183.125 178.892 182.885 179.14 182.701 179.476C182.525 179.804 182.437 180.208 182.437 180.688C182.437 181.176 182.525 181.584 182.701 181.912C182.885 182.24 183.125 182.484 183.421 182.644C183.717 182.804 184.041 182.884 184.393 182.884C184.745 182.884 185.069 182.804 185.365 182.644C185.661 182.484 185.897 182.24 186.073 181.912C186.257 181.584 186.349 181.176 186.349 180.688C186.349 180.208 186.257 179.804 186.073 179.476C185.897 179.14 185.661 178.892 185.365 178.732C185.069 178.572 184.745 178.492 184.393 178.492ZM197.545 176.608H193.357V179.128C193.549 178.88 193.821 178.684 194.173 178.54C194.525 178.388 194.913 178.312 195.337 178.312C195.929 178.312 196.421 178.44 196.813 178.696C197.205 178.944 197.493 179.276 197.677 179.692C197.869 180.108 197.965 180.568 197.965 181.072C197.965 181.96 197.717 182.68 197.221 183.232C196.725 183.776 196.005 184.048 195.061 184.048C194.173 184.048 193.457 183.812 192.913 183.34C192.369 182.868 192.073 182.24 192.025 181.456H193.369C193.441 181.888 193.617 182.228 193.897 182.476C194.185 182.724 194.549 182.848 194.989 182.848C195.533 182.848 195.941 182.684 196.213 182.356C196.485 182.028 196.621 181.592 196.621 181.048C196.621 180.536 196.481 180.136 196.201 179.848C195.921 179.552 195.521 179.404 195.001 179.404C194.633 179.404 194.309 179.484 194.029 179.644C193.757 179.804 193.557 180.016 193.429 180.28H192.097V175.396H197.545V176.608ZM204.93 177.316C205.49 177.316 205.97 177.444 206.37 177.7C206.77 177.956 207.07 178.312 207.27 178.768V177.388H208.638V187.144H207.27V182.548C207.062 183.028 206.758 183.404 206.358 183.676C205.958 183.948 205.482 184.084 204.93 184.084C204.354 184.084 203.83 183.944 203.358 183.664C202.886 183.384 202.514 182.992 202.242 182.488C201.978 181.976 201.846 181.384 201.846 180.712C201.846 180.04 201.978 179.448 202.242 178.936C202.514 178.424 202.886 178.028 203.358 177.748C203.83 177.46 204.354 177.316 204.93 177.316ZM205.254 178.516C204.67 178.516 204.19 178.712 203.814 179.104C203.438 179.488 203.25 180.024 203.25 180.712C203.25 181.4 203.434 181.932 203.802 182.308C204.178 182.684 204.662 182.872 205.254 182.872C205.622 182.872 205.958 182.788 206.262 182.62C206.566 182.444 206.81 182.192 206.994 181.864C207.178 181.536 207.27 181.144 207.27 180.688C207.27 180.24 207.178 179.852 206.994 179.524C206.81 179.196 206.566 178.948 206.262 178.78C205.958 178.604 205.622 178.516 205.254 178.516ZM216.375 177.388V184H214.995V182.56C214.827 183.048 214.535 183.428 214.119 183.7C213.703 183.964 213.219 184.096 212.667 184.096C211.899 184.096 211.283 183.848 210.819 183.352C210.355 182.856 210.123 182.148 210.123 181.228V177.388H211.491V181.084C211.491 181.684 211.643 182.148 211.947 182.476C212.251 182.796 212.667 182.956 213.195 182.956C213.739 182.956 214.175 182.78 214.503 182.428C214.831 182.076 214.995 181.564 214.995 180.892V177.388H216.375ZM217.822 175.468C217.822 175.236 217.902 175.044 218.062 174.892C218.222 174.74 218.434 174.664 218.698 174.664C218.962 174.664 219.174 174.74 219.334 174.892C219.502 175.044 219.586 175.236 219.586 175.468C219.586 175.7 219.502 175.888 219.334 176.032C219.174 176.176 218.962 176.248 218.698 176.248C218.434 176.248 218.222 176.176 218.062 176.032C217.902 175.888 217.822 175.7 217.822 175.468ZM219.382 177.388V184H218.014V177.388H219.382ZM222.021 182.848H225.417V184H220.509V182.908L223.725 178.54H220.593V177.388H225.297V178.48L222.021 182.848ZM227.529 182.848H230.925V184H226.017V182.908L229.233 178.54H226.101V177.388H230.805V178.48L227.529 182.848ZM238.197 180.376C238.197 180.6 238.181 180.796 238.149 180.964H233.061C233.085 181.644 233.273 182.148 233.625 182.476C233.977 182.804 234.413 182.968 234.933 182.968C235.389 182.968 235.773 182.852 236.085 182.62C236.405 182.388 236.601 182.08 236.673 181.696H238.137C238.049 182.16 237.865 182.572 237.585 182.932C237.305 183.292 236.941 183.576 236.493 183.784C236.045 183.984 235.545 184.084 234.993 184.084C234.353 184.084 233.785 183.948 233.289 183.676C232.801 183.404 232.417 183.012 232.137 182.5C231.857 181.988 231.717 181.384 231.717 180.688C231.717 180 231.857 179.4 232.137 178.888C232.417 178.376 232.801 177.984 233.289 177.712C233.785 177.44 234.353 177.304 234.993 177.304C235.641 177.304 236.205 177.44 236.685 177.712C237.173 177.976 237.545 178.344 237.801 178.816C238.065 179.28 238.197 179.8 238.197 180.376ZM236.817 180.34C236.833 179.908 236.757 179.548 236.589 179.26C236.429 178.964 236.205 178.748 235.917 178.612C235.637 178.468 235.329 178.396 234.993 178.396C234.457 178.396 234.009 178.56 233.649 178.888C233.289 179.216 233.093 179.7 233.061 180.34H236.817ZM241.689 177.304C242.465 177.304 243.085 177.504 243.549 177.904C244.021 178.296 244.309 178.824 244.413 179.488H243.117C243.061 179.128 242.905 178.84 242.649 178.624C242.401 178.4 242.069 178.288 241.653 178.288C241.309 178.288 241.041 178.372 240.849 178.54C240.665 178.7 240.573 178.92 240.573 179.2C240.573 179.408 240.641 179.576 240.777 179.704C240.913 179.832 241.081 179.932 241.281 180.004C241.489 180.076 241.781 180.156 242.157 180.244C242.653 180.356 243.053 180.472 243.357 180.592C243.669 180.712 243.933 180.904 244.149 181.168C244.373 181.424 244.485 181.776 244.485 182.224C244.485 182.776 244.273 183.224 243.849 183.568C243.433 183.912 242.869 184.084 242.157 184.084C241.333 184.084 240.665 183.892 240.153 183.508C239.649 183.124 239.345 182.588 239.241 181.9H240.573C240.613 182.26 240.773 182.552 241.053 182.776C241.333 183 241.701 183.112 242.157 183.112C242.485 183.112 242.741 183.028 242.925 182.86C243.117 182.684 243.213 182.464 243.213 182.2C243.213 181.968 243.141 181.784 242.997 181.648C242.853 181.512 242.673 181.408 242.457 181.336C242.241 181.256 241.945 181.176 241.569 181.096C241.089 180.984 240.697 180.872 240.393 180.76C240.097 180.648 239.841 180.468 239.625 180.22C239.417 179.964 239.313 179.62 239.313 179.188C239.313 178.628 239.521 178.176 239.937 177.832C240.361 177.48 240.945 177.304 241.689 177.304ZM246.937 182.488V184H245.389V182.488H246.937Z" fill="#30336A"/>
<path fill-rule="evenodd" clip-rule="evenodd" d="M150.555 126.744C150.873 126.864 151.164 127.046 151.411 127.279C151.658 127.512 151.856 127.792 151.994 128.103C152.133 128.413 152.208 128.748 152.216 129.087C152.225 129.427 152.166 129.765 152.042 130.081C151.919 130.398 151.735 130.687 151.499 130.932C151.264 131.177 150.982 131.373 150.67 131.508C150.359 131.644 150.023 131.716 149.684 131.721C149.344 131.726 149.006 131.664 148.691 131.538L105.333 114.808C104.697 114.561 104.185 114.072 103.91 113.447C103.634 112.823 103.619 112.115 103.865 111.479C104.112 110.843 104.601 110.332 105.226 110.056C105.85 109.781 106.558 109.765 107.194 110.012L150.555 126.744Z" fill="#D1D1D6"/>
<path d="M157.987 120.777C153.368 116.157 145.878 116.157 141.259 120.777C136.639 125.396 136.639 132.886 141.259 137.505C145.878 142.125 153.368 142.125 157.987 137.505C162.607 132.886 162.607 125.396 157.987 120.777Z" fill="#685E68"/>
<path d="M154.388 124.087C151.613 121.442 147.219 121.547 144.574 124.322C141.928 127.098 142.034 131.492 144.809 134.137C147.585 136.782 151.979 136.677 154.624 133.901C157.269 131.126 157.164 126.732 154.388 124.087Z" fill="#544854"/>
<path fill-rule="evenodd" clip-rule="evenodd" d="M147.762 71.5318C133.095 71.5327 118.986 77.158 108.342 87.2493C97.698 97.3406 91.3291 111.129 90.5468 125.776C90.504 126.599 90.1467 127.375 89.5486 127.942C88.9505 128.51 88.1573 128.826 87.3328 128.826H71.2218C70.7868 128.832 70.3554 128.747 69.9553 128.577C69.5551 128.406 69.1952 128.153 68.8988 127.835C68.5932 127.526 68.3557 127.156 68.2017 126.749C68.0477 126.342 67.9807 125.908 68.0048 125.474C68.87 104.901 77.6512 85.4582 92.514 71.2074C107.377 56.9565 127.171 49 147.762 49C168.353 49 188.148 56.9565 203.011 71.2074C217.873 85.4582 226.655 104.901 227.52 125.474C227.537 125.907 227.467 126.34 227.314 126.746C227.16 127.152 226.926 127.522 226.625 127.835C226.325 128.148 225.964 128.397 225.565 128.568C225.166 128.738 224.737 128.826 224.303 128.826H208.19C207.365 128.826 206.572 128.51 205.974 127.943C205.376 127.375 205.018 126.599 204.976 125.776C204.194 111.13 197.825 97.3409 187.181 87.2497C176.537 77.1584 162.429 71.5329 147.762 71.5318V71.5318Z" fill="#8AC9FE"/>
<path fill-rule="evenodd" clip-rule="evenodd" d="M107.248 88.3127C97.2341 98.3015 91.2833 111.651 90.5478 125.776C90.505 126.599 90.1477 127.375 89.5496 127.942C88.9515 128.51 88.1583 128.826 87.3338 128.826H79.2008C79.189 119.82 80.957 110.902 84.4032 102.582C87.8493 94.2619 92.9058 86.7051 99.2818 80.3457L107.248 88.3127Z" fill="#60B7FF"/>
<path fill-rule="evenodd" clip-rule="evenodd" d="M204.977 125.777C204.241 111.652 198.291 98.3027 188.277 88.3139L204.208 72.3809C218.38 86.5164 226.704 105.475 227.52 125.475C227.537 125.908 227.467 126.341 227.314 126.747C227.16 127.153 226.926 127.523 226.625 127.836C226.325 128.149 225.964 128.398 225.565 128.569C225.166 128.739 224.737 128.827 224.303 128.827H208.191C207.366 128.827 206.573 128.511 205.975 127.944C205.377 127.376 205.019 126.6 204.977 125.777V125.777Z" fill="#FE646F"/>
<path fill-rule="evenodd" clip-rule="evenodd" d="M204.977 125.776C204.241 111.651 198.291 98.3015 188.277 88.3127L196.243 80.3467C202.619 86.7061 207.675 94.2629 211.121 102.583C214.568 110.903 216.336 119.821 216.324 128.827H208.192C207.367 128.828 206.573 128.511 205.975 127.943C205.376 127.376 205.019 126.6 204.977 125.776V125.776Z" fill="#FD4755"/>
<path fill-rule="evenodd" clip-rule="evenodd" d="M188.276 88.3128C182.961 82.9845 176.646 78.759 169.693 75.8792C162.741 72.9993 155.287 71.5219 147.762 71.5318V49.0008C158.247 48.9871 168.631 51.0456 178.318 55.0579C188.005 59.0702 196.803 64.9573 204.208 72.3808L188.276 88.3128Z" fill="#FFE177"/>
<path fill-rule="evenodd" clip-rule="evenodd" d="M188.276 88.3127C182.961 82.9844 176.646 78.7589 169.693 75.879C162.741 72.9992 155.287 71.5218 147.762 71.5317V60.2657C156.767 60.2539 165.686 62.0219 174.006 65.4681C182.326 68.9143 189.882 73.9707 196.242 80.3467L188.276 88.3127Z" fill="#FFD064"/>
<path fill-rule="evenodd" clip-rule="evenodd" d="M147.762 49.0008V71.5318C140.236 71.522 132.783 72.9995 125.831 75.8794C118.878 78.7592 112.563 82.9846 107.249 88.3128L91.3158 72.3808C98.7203 64.9573 107.519 59.0702 117.206 55.0579C126.893 51.0456 137.277 48.9871 147.762 49.0008V49.0008Z" fill="#CCF49F"/>
<path fill-rule="evenodd" clip-rule="evenodd" d="M147.762 71.5317C140.236 71.5218 132.783 72.9992 125.83 75.879C118.877 78.7589 112.562 82.9844 107.248 88.3127L99.2818 80.3467C105.641 73.9706 113.198 68.9142 121.518 65.468C129.838 62.0219 138.756 60.2539 147.762 60.2657V71.5317Z" fill="#B3E59F"/>
<path d="M108.748 70.6315C109.49 70.2375 110.205 70.0917 110.893 70.1941C111.581 70.2964 112.172 70.6203 112.666 71.1657L111.606 71.7285C111.293 71.4649 110.927 71.3159 110.508 71.2814C110.096 71.2439 109.678 71.3377 109.254 71.5628C108.865 71.7691 108.564 72.0464 108.349 72.3946C108.139 72.7397 108.036 73.1269 108.037 73.5562C108.045 73.9825 108.169 74.4222 108.41 74.8755C108.663 75.3523 108.969 75.7145 109.326 75.9621C109.684 76.2098 110.071 76.3404 110.486 76.3541C110.903 76.3587 111.324 76.2484 111.748 76.0233C112.266 75.7482 112.626 75.3532 112.828 74.8383C113.027 74.3176 113.016 73.7573 112.795 73.1574L110.508 74.3721L110.114 73.6304L113.249 71.9654L113.76 72.9279C113.934 73.4246 113.991 73.9301 113.932 74.4444C113.876 74.9497 113.695 75.4268 113.39 75.8756C113.091 76.3213 112.671 76.6879 112.129 76.9756C111.523 77.2976 110.915 77.4468 110.306 77.423C109.697 77.3992 109.14 77.2161 108.633 76.8737C108.124 76.5255 107.705 76.0423 107.377 75.4242C107.048 74.8061 106.884 74.1914 106.884 73.5802C106.881 72.963 107.038 72.4 107.357 71.8913C107.678 71.3735 108.142 70.9535 108.748 70.6315ZM115.673 68.6969C116.144 68.4468 116.621 68.3217 117.104 68.3217C117.587 68.3218 118.034 68.4539 118.446 68.7181C118.858 68.9823 119.199 69.3675 119.468 69.8737C119.74 70.3859 119.87 70.8866 119.858 71.3759C119.846 71.8652 119.705 72.31 119.435 72.7103C119.164 73.1105 118.794 73.4357 118.323 73.6858C117.852 73.936 117.375 74.061 116.892 74.061C116.415 74.0578 115.967 73.9257 115.549 73.6646C115.134 73.3946 114.792 73.0064 114.523 72.5001C114.254 71.9939 114.126 71.4961 114.137 71.0068C114.155 70.5144 114.296 70.0696 114.561 69.6725C114.831 69.2722 115.202 68.947 115.673 68.6969ZM116.137 69.5711C115.878 69.7086 115.671 69.8941 115.516 70.1275C115.36 70.361 115.281 70.6373 115.277 70.9564C115.275 71.2665 115.368 71.5982 115.556 71.9514C115.747 72.3105 115.971 72.5763 116.229 72.7489C116.492 72.9183 116.764 73.0041 117.045 73.0061C117.325 73.0082 117.595 72.9404 117.854 72.8028C118.113 72.6653 118.32 72.4798 118.475 72.2463C118.63 72.0129 118.709 71.7411 118.71 71.431C118.717 71.1177 118.625 70.7816 118.435 70.4225C118.247 70.0693 118.021 69.808 117.758 69.6385C117.497 69.4601 117.226 69.3698 116.946 69.3678C116.666 69.3657 116.396 69.4335 116.137 69.5711ZM121.338 65.6878C121.809 65.4376 122.286 65.3126 122.769 65.3126C123.252 65.3127 123.7 65.4448 124.112 65.709C124.524 65.9732 124.864 66.3584 125.133 66.8646C125.405 67.3768 125.535 67.8775 125.523 68.3668C125.512 68.8561 125.37 69.3009 125.1 69.7011C124.83 70.1014 124.459 70.4266 123.988 70.6767C123.517 70.9269 123.04 71.0519 122.557 71.0519C122.08 71.0487 121.632 70.9166 121.214 70.6555C120.799 70.3855 120.457 69.9973 120.188 69.491C119.919 68.9848 119.791 68.487 119.803 67.9977C119.82 67.5053 119.962 67.0605 120.226 66.6634C120.497 66.2631 120.867 65.9379 121.338 65.6878ZM121.802 66.5619C121.543 66.6995 121.336 66.885 121.181 67.1184C121.026 67.3519 120.946 67.6281 120.942 67.9473C120.941 68.2574 121.034 68.5891 121.221 68.9423C121.412 69.3014 121.636 69.5672 121.894 69.7398C122.158 69.9092 122.43 69.995 122.71 69.997C122.99 69.9991 123.26 69.9313 123.519 69.7937C123.778 69.6562 123.985 69.4707 124.14 69.2372C124.296 69.0038 124.374 68.732 124.375 68.4219C124.383 68.1086 124.291 67.7725 124.1 67.4134C123.912 67.0602 123.687 66.7988 123.423 66.6294C123.162 66.4509 122.892 66.3607 122.611 66.3587C122.331 66.3566 122.061 66.4244 121.802 66.5619ZM126.73 62.8241C127.171 62.5896 127.606 62.4983 128.034 62.5504C128.461 62.6025 128.832 62.7753 129.147 63.0687L127.66 60.2696L128.675 59.7303L132.146 66.2645L131.13 66.8038L130.53 65.6736C130.597 66.0983 130.533 66.5025 130.336 66.886C130.14 67.2695 129.821 67.5785 129.38 67.813C128.956 68.0381 128.523 68.1397 128.081 68.1178C127.645 68.0927 127.233 67.9419 126.844 67.6652C126.456 67.3885 126.126 66.9941 125.854 66.4819C125.585 65.9757 125.444 65.4841 125.433 65.0073C125.421 64.5305 125.527 64.1045 125.75 63.7293C125.979 63.3509 126.306 63.0492 126.73 62.8241ZM127.508 63.5429C127.06 63.7805 126.778 64.1155 126.66 64.5478C126.546 64.971 126.621 65.4328 126.887 65.9332C127.153 66.4336 127.494 66.7576 127.913 66.9054C128.333 67.0441 128.768 66.9946 129.215 66.757C129.498 66.6069 129.716 66.4077 129.871 66.1594C130.023 65.9052 130.099 65.623 130.101 65.3129C130.102 65.0028 130.017 64.6858 129.845 64.362C129.676 64.0442 129.463 63.7989 129.205 63.6264C128.944 63.4479 128.668 63.3533 128.375 63.3427C128.079 63.3261 127.79 63.3928 127.508 63.5429Z" fill="white"/>
<path d="M154.308 56.8214L154.049 62.0703L157.516 58.1173L158.493 58.5122L154.236 63.2642L153.085 62.7993L153.331 56.4265L154.308 56.8214ZM161.908 63.5955C161.849 63.7426 161.786 63.8671 161.721 63.969L158.379 62.6189C158.214 63.0719 158.204 63.4527 158.348 63.7616C158.492 64.0704 158.735 64.2938 159.077 64.4318C159.376 64.5528 159.659 64.5785 159.926 64.5089C160.197 64.4414 160.408 64.2912 160.557 64.0581L161.518 64.4465C161.338 64.7279 161.107 64.9497 160.828 65.1118C160.549 65.2739 160.234 65.3639 159.885 65.3816C159.537 65.3941 159.182 65.3271 158.82 65.1806C158.4 65.0108 158.063 64.7708 157.809 64.4605C157.561 64.1524 157.413 63.793 157.365 63.3825C157.317 62.9719 157.385 62.5381 157.57 62.081C157.752 61.6292 158.003 61.2722 158.323 61.0103C158.643 60.7483 158.999 60.5928 159.392 60.5436C159.79 60.4966 160.199 60.558 160.619 60.7278C161.045 60.8998 161.379 61.1387 161.622 61.4447C161.872 61.7476 162.019 62.088 162.062 62.4659C162.112 62.8407 162.061 63.2172 161.908 63.5955ZM161.011 63.2057C161.136 62.9262 161.182 62.6696 161.148 62.4359C161.122 62.1991 161.032 61.9978 160.879 61.832C160.733 61.6632 160.55 61.5341 160.329 61.445C159.977 61.3028 159.639 61.2916 159.316 61.4115C158.993 61.5314 158.735 61.7972 158.545 62.2091L161.011 63.2057ZM164.123 63.1978C164.385 62.9735 164.685 62.8351 165.024 62.7826C165.365 62.7249 165.714 62.7682 166.072 62.9125L165.677 63.8898L165.409 63.7815C165.015 63.6223 164.658 63.5911 164.338 63.6878C164.025 63.7815 163.779 64.0489 163.601 64.4903L162.712 66.6891L161.814 66.3261L163.568 61.9836L164.467 62.3466L164.123 63.1978ZM167.228 63.4624L167.239 67.1796L169.735 64.475L170.736 64.8793L165.522 70.2263L164.522 69.8219L166.335 68.0336L166.22 63.0548L167.228 63.4624ZM176.232 65.624C176.894 65.8914 177.38 66.2772 177.689 66.7813C177.999 67.2853 178.111 67.8471 178.026 68.4666L177.08 68.0845C177.08 67.7362 176.977 67.4165 176.771 67.1253C176.57 66.8363 176.28 66.6154 175.902 66.4625C175.555 66.3224 175.21 66.2776 174.865 66.3279C174.526 66.3804 174.218 66.5246 173.939 66.7604C173.666 66.9983 173.447 67.3195 173.284 67.7241C173.112 68.1497 173.043 68.5467 173.078 68.9151C173.112 69.2835 173.238 69.6065 173.456 69.884C173.682 70.1583 173.983 70.3719 174.362 70.5248C174.824 70.7116 175.278 70.73 175.724 70.58C176.171 70.4248 176.53 70.1114 176.8 69.6398L174.759 68.8152L175.026 68.1531L177.824 69.2835L177.477 70.1426C177.249 70.5269 176.951 70.8405 176.584 71.0834C176.224 71.3231 175.815 71.4663 175.356 71.5132C174.902 71.5621 174.434 71.4889 173.95 71.2936C173.409 71.075 172.98 70.761 172.662 70.3516C172.345 69.9422 172.159 69.4791 172.105 68.9622C172.053 68.4401 172.139 67.9032 172.362 67.3515C172.585 66.7999 172.895 66.3569 173.293 66.0226C173.693 65.683 174.146 65.4778 174.651 65.407C175.164 65.333 175.691 65.4053 176.232 65.624ZM181.277 69.0743C181.698 69.2441 182.04 69.4863 182.304 69.8008C182.568 70.1153 182.727 70.4789 182.78 70.8915C182.833 71.3042 182.769 71.7365 182.586 72.1883C182.401 72.6454 182.147 73.0039 181.822 73.2637C181.497 73.5236 181.13 73.6749 180.721 73.7177C180.313 73.7605 179.899 73.6969 179.478 73.5271C179.058 73.3573 178.716 73.1151 178.452 72.8006C178.193 72.4883 178.034 72.1247 177.976 71.7099C177.924 71.2919 177.99 70.8571 178.173 70.4052C178.355 69.9534 178.609 69.5975 178.934 69.3377C179.264 69.08 179.631 68.9286 180.034 68.8837C180.443 68.841 180.857 68.9045 181.277 69.0743ZM180.962 69.8545C180.731 69.7611 180.497 69.7277 180.26 69.7542C180.023 69.7808 179.8 69.88 179.59 70.0518C179.387 70.2205 179.222 70.4625 179.095 70.7778C178.965 71.0982 178.915 71.3896 178.943 71.6517C178.977 71.9159 179.07 72.1398 179.222 72.3235C179.374 72.5071 179.565 72.6456 179.797 72.739C180.028 72.8324 180.262 72.8658 180.499 72.8393C180.736 72.8128 180.955 72.7151 181.158 72.5464C181.366 72.3798 181.534 72.1363 181.664 71.8158C181.791 71.5005 181.838 71.2108 181.804 70.9466C181.778 70.6792 181.689 70.4537 181.537 70.2701C181.385 70.0864 181.193 69.9479 180.962 69.8545ZM186.334 71.1173C186.754 71.2871 187.096 71.5292 187.36 71.8437C187.624 72.1582 187.783 72.5218 187.836 72.9345C187.89 73.3472 187.825 73.7794 187.643 74.2313C187.458 74.6884 187.203 75.0469 186.878 75.3067C186.553 75.5665 186.186 75.7179 185.778 75.7606C185.369 75.8034 184.955 75.7399 184.535 75.5701C184.114 75.4002 183.772 75.1581 183.508 74.8436C183.249 74.5312 183.091 74.1676 183.032 73.7528C182.981 73.3349 183.047 72.9 183.229 72.4482C183.412 71.9963 183.665 71.6405 183.99 71.3806C184.321 71.1229 184.687 70.9716 185.091 70.9267C185.499 70.8839 185.913 70.9474 186.334 71.1173ZM186.019 71.8975C185.787 71.8041 185.553 71.7707 185.316 71.7972C185.08 71.8237 184.856 71.9229 184.646 72.0948C184.444 72.2635 184.279 72.5055 184.151 72.8207C184.022 73.1412 183.971 73.4325 184 73.6946C184.034 73.9589 184.127 74.1828 184.278 74.3664C184.43 74.55 184.622 74.6886 184.853 74.782C185.084 74.8754 185.318 74.9088 185.555 74.8823C185.792 74.8557 186.012 74.7581 186.214 74.5894C186.422 74.4228 186.591 74.1792 186.72 73.8587C186.848 73.5435 186.895 73.2538 186.861 72.9895C186.834 72.7222 186.745 72.4967 186.593 72.313C186.441 72.1294 186.25 71.9909 186.019 71.8975ZM191.146 73.0615C191.54 73.2207 191.837 73.4538 192.037 73.7607C192.237 74.0676 192.327 74.4036 192.308 74.7687L193.317 72.2704L194.224 72.6365L191.868 78.4685L190.961 78.1024L191.369 77.0936C191.129 77.3695 190.831 77.5484 190.474 77.6303C190.117 77.7122 189.741 77.6735 189.347 77.5143C188.969 77.3615 188.666 77.1352 188.439 76.8356C188.216 76.5381 188.089 76.1872 188.057 75.7831C188.025 75.3789 188.101 74.9482 188.286 74.4911C188.468 74.0393 188.711 73.6792 189.015 73.4109C189.319 73.1425 189.655 72.9785 190.021 72.9187C190.393 72.8611 190.768 72.9087 191.146 73.0615ZM191.103 73.9611C190.704 73.7997 190.332 73.799 189.986 73.9588C189.648 74.1154 189.388 74.4171 189.208 74.8637C189.027 75.3103 189.003 75.71 189.136 76.063C189.275 76.4129 189.545 76.6684 189.944 76.8298C190.197 76.9317 190.446 76.9652 190.692 76.9302C190.941 76.8901 191.166 76.7856 191.369 76.6169C191.571 76.4482 191.731 76.2193 191.848 75.9304C191.963 75.6466 192.006 75.3737 191.977 75.1116C191.951 74.8442 191.861 74.6124 191.708 74.4162C191.557 74.2147 191.356 74.063 191.103 73.9611Z" fill="white"/>
<path d="M204.901 85.4584L203.252 86.2271L204.186 88.23L203.508 88.5462L202.574 86.5432L200.887 87.3299L201.929 89.564L201.213 89.8981L199.761 86.7858L205.2 84.2497L206.651 87.3619L205.943 87.6924L204.901 85.4584ZM202.781 93.2618L203.798 91.5214L201.872 91.3128L201.416 90.3345L204.273 90.7091L205.654 88.3397L206.117 89.3335L205.128 91.0329L207.012 91.2517L207.464 92.2223L204.669 91.8189L203.245 94.2556L202.781 93.2618ZM208.708 94.7485C208.964 95.298 209.03 95.8208 208.904 96.3168C208.785 96.8104 208.496 97.217 208.038 97.5366L207.604 96.6045C207.847 96.4286 207.996 96.2058 208.052 95.936C208.115 95.669 208.077 95.3866 207.938 95.0887C207.78 94.7497 207.527 94.5236 207.181 94.4101C206.839 94.2943 206.437 94.3442 205.975 94.5597C205.513 94.7753 205.214 95.0523 205.078 95.3908C204.942 95.7294 204.953 96.0681 205.111 96.4071C205.25 96.7049 205.442 96.9155 205.687 97.0388C205.934 97.1673 206.203 97.1949 206.494 97.1218L206.929 98.0539C206.39 98.1989 205.891 98.1599 205.43 97.9369C204.97 97.7139 204.611 97.3276 204.355 96.7781C204.164 96.3672 204.081 95.9619 204.107 95.562C204.136 95.1673 204.272 94.8035 204.517 94.4705C204.762 94.1374 205.108 93.8668 205.555 93.6584C205.996 93.4524 206.423 93.3627 206.836 93.3892C207.248 93.4157 207.615 93.5448 207.936 93.7767C208.259 94.0137 208.516 94.3376 208.708 94.7485ZM209.919 102.495C209.775 102.562 209.644 102.61 209.527 102.64L208.004 99.3735C207.575 99.5924 207.307 99.864 207.202 100.188C207.097 100.512 207.122 100.841 207.278 101.175C207.414 101.468 207.604 101.68 207.846 101.81C208.091 101.946 208.347 101.98 208.615 101.911L209.054 102.851C208.729 102.934 208.41 102.939 208.095 102.867C207.78 102.795 207.489 102.646 207.221 102.421C206.958 102.193 206.745 101.902 206.579 101.548C206.388 101.137 206.305 100.732 206.331 100.332C206.36 99.937 206.496 99.5731 206.741 99.2401C206.986 98.9071 207.332 98.6364 207.779 98.428C208.22 98.2221 208.648 98.1323 209.06 98.1588C209.473 98.1853 209.839 98.3145 210.16 98.5463C210.483 98.7833 210.74 99.1072 210.932 99.5181C211.126 99.9341 211.207 100.337 211.176 100.726C211.153 101.119 211.028 101.468 210.802 101.773C210.583 102.082 210.289 102.322 209.919 102.495ZM209.529 101.598C209.811 101.479 210.019 101.322 210.154 101.128C210.296 100.937 210.368 100.728 210.369 100.503C210.377 100.28 210.331 100.061 210.231 99.845C210.07 99.5009 209.831 99.2624 209.513 99.1295C209.194 98.9965 208.825 99.0156 208.405 99.1867L209.529 101.598ZM214.098 102.647L208.397 105.306L207.988 104.427L213.688 101.769L214.098 102.647ZM215.003 104.588L209.302 107.247L208.893 106.368L214.594 103.71L215.003 104.588ZM214.89 108.007C215.07 108.392 215.128 108.765 215.065 109.126C215.002 109.487 214.84 109.797 214.58 110.056L215.566 109.596L215.975 110.474L211.731 112.454L211.321 111.576L212.307 111.116C211.941 111.149 211.6 111.074 211.283 110.89C210.966 110.706 210.718 110.422 210.538 110.037C210.365 109.667 210.298 109.295 210.336 108.921C210.377 108.552 210.523 108.209 210.775 107.891C211.027 107.573 211.377 107.31 211.824 107.102C212.265 106.896 212.689 106.799 213.094 106.81C213.499 106.821 213.856 106.929 214.165 107.136C214.476 107.347 214.718 107.638 214.89 108.007ZM214.246 108.636C214.064 108.246 213.792 107.991 213.43 107.872C213.076 107.756 212.68 107.8 212.244 108.003C211.807 108.207 211.517 108.483 211.373 108.831C211.237 109.183 211.26 109.553 211.442 109.944C211.557 110.19 211.716 110.385 211.92 110.527C212.129 110.667 212.365 110.745 212.629 110.76C212.892 110.774 213.165 110.716 213.447 110.584C213.725 110.455 213.942 110.285 214.1 110.073C214.263 109.86 214.356 109.629 214.378 109.381C214.405 109.131 214.361 108.883 214.246 108.636ZM217.642 113.869C217.872 114.362 217.898 114.831 217.718 115.278C217.539 115.724 217.153 116.085 216.563 116.36L214.09 117.514L213.68 116.635L216.061 115.525C216.441 115.348 216.688 115.114 216.803 114.823C216.922 114.53 216.903 114.214 216.745 113.875C216.582 113.525 216.338 113.298 216.014 113.193C215.695 113.085 215.32 113.132 214.889 113.333L212.632 114.386L212.222 113.508L216.467 111.528L216.876 112.407L215.944 112.841C216.315 112.806 216.65 112.881 216.949 113.066C217.249 113.252 217.48 113.52 217.642 113.869ZM216.327 120.319L215.564 120.675L215.313 120.135C215.102 119.683 215.049 119.289 215.155 118.952C215.268 118.618 215.579 118.332 216.087 118.095L218.167 117.125L217.883 116.517L218.63 116.168L218.914 116.777L219.97 116.285L220.383 117.171L219.327 117.663L219.805 118.688L219.058 119.036L218.58 118.011L216.485 118.988C216.243 119.101 216.097 119.223 216.045 119.353C215.996 119.488 216.024 119.669 216.129 119.895L216.327 120.319Z" fill="white"/>
<path d="M86.8053 108.299L86.2353 109.287L80.0083 109.652L84.5203 112.257L83.9503 113.244L77.8448 109.719L78.4148 108.732L84.6592 108.377L80.1298 105.762L80.6998 104.774L86.8053 108.299ZM87.4398 101.16C87.6015 101.254 87.7363 101.347 87.8442 101.44L85.7242 105.112C86.2249 105.378 86.667 105.452 87.0504 105.335C87.4338 105.217 87.7338 104.971 87.9505 104.596C88.1405 104.267 88.2167 103.941 88.1793 103.619C88.1452 103.292 88.0046 103.022 87.7575 102.81L88.3675 101.754C88.6657 102.01 88.8863 102.315 89.0295 102.667C89.1726 103.019 89.2259 103.4 89.1894 103.81C89.147 104.217 89.0109 104.619 88.7809 105.017C88.5142 105.479 88.1794 105.833 87.7764 106.077C87.3768 106.316 86.9339 106.43 86.4477 106.419C85.9615 106.407 85.4673 106.257 84.965 105.967C84.4685 105.68 84.0938 105.329 83.841 104.914C83.5881 104.498 83.4652 104.058 83.4723 103.592C83.4826 103.121 83.6212 102.654 83.8878 102.192C84.1578 101.725 84.491 101.374 84.8873 101.141C85.2811 100.899 85.7017 100.784 86.149 100.796C86.5939 100.799 87.0242 100.92 87.4398 101.16ZM86.8389 102.141C86.5338 101.95 86.2423 101.854 85.9644 101.856C85.6842 101.848 85.4349 101.919 85.2168 102.071C84.9962 102.213 84.8159 102.405 84.6759 102.647C84.4526 103.034 84.3843 103.426 84.471 103.822C84.5577 104.219 84.8253 104.562 85.2739 104.852L86.8389 102.141ZM89.6938 92.2763L93.7006 96.3563L93.0706 97.4475L88.7013 96.4953L91.7006 99.8204L91.0756 100.903L85.5388 99.4729L86.1138 98.477L90.5013 99.7977L87.3288 96.3726L87.9288 95.3333L92.4913 96.3509L89.1538 93.2116L89.6938 92.2763Z" fill="white"/>
<path d="M42.673 158.77L34.178 167.265L29.707 162.794L23 169.5" stroke="#E3AB48" stroke-width="2" stroke-linecap="round" stroke-linejoin="round"/>
<path d="M37.307 158.77H42.672V164.135" stroke="#E3AB48" stroke-width="2" stroke-linecap="round" stroke-linejoin="round"/>
</g>
<defs>
<filter id="filter0_d_37_1706" x="0" y="0" width="295" height="225" filterUnits="userSpaceOnUse" color-interpolation-filters="sRGB">
<feFlood flood-opacity="0" result="BackgroundImageFix"/>
<feColorMatrix in="SourceAlpha" type="matrix" values="0 0 0 0 0 0 0 0 0 0 0 0 0 0 0 0 0 0 127 0" result="hardAlpha"/>
<feOffset dy="4"/>
<feGaussianBlur stdDeviation="2"/>
<feComposite in2="hardAlpha" operator="out"/>
<feColorMatrix type="matrix" values="0 0 0 0 0 0 0 0 0 0 0 0 0 0 0 0 0 0 0.1 0"/>
<feBlend mode="normal" in2="BackgroundImageFix" result="effect1_dropShadow_37_1706"/>
<feBlend mode="normal" in="SourceGraphic" in2="effect1_dropShadow_37_1706" result="shape"/>
</filter>
</defs>
</svg>
