<svg width="166" height="51" viewBox="0 0 166 51" fill="none" xmlns="http://www.w3.org/2000/svg">
  <rect y="0.997559" width="166" height="50" rx="5" fill="#30336A" />
  <path fill-rule="evenodd" clip-rule="evenodd"
    d="M53.862 33.8852H47.9343L46.5108 38.1721H44L49.6147 22.3115H52.2232L57.8379 38.1721H55.2843L53.862 33.8852ZM48.5482 31.9069H53.2469L50.9306 24.9495H50.8658L48.5482 31.9069ZM69.9637 32.3909C69.9637 35.9844 68.0778 38.2931 65.232 38.2931C63.761 38.3716 62.3754 37.5858 61.6646 36.27H61.6107V41.9976H59.2834V26.6084H61.5362V28.5318H61.579C62.3214 27.2242 63.7085 26.4387 65.1892 26.4874C68.0668 26.4875 69.9637 28.8074 69.9637 32.3909ZM67.5715 32.3909C67.5715 30.0497 66.3852 28.5106 64.5753 28.5106C62.7971 28.5106 61.601 30.0822 61.601 32.3909C61.601 34.7209 62.7971 36.2812 64.5753 36.2812C66.3853 36.2812 67.5715 34.7533 67.5715 32.3909ZM82.4429 32.3909C82.4429 35.9844 80.557 38.2931 77.7112 38.2931C76.2402 38.3716 74.8546 37.5858 74.1438 36.27H74.0899V41.9976H71.7626V26.6084H74.0153V28.5318H74.0581C74.8005 27.2242 76.1876 26.4387 77.6683 26.4875C80.546 26.4875 82.4429 28.8074 82.4429 32.3909ZM80.0507 32.3909C80.0507 30.0497 78.8644 28.5106 77.0544 28.5106C75.2762 28.5106 74.0802 30.0822 74.0802 32.3909C74.0802 34.7209 75.2762 36.2812 77.0544 36.2812C78.8644 36.2812 80.0507 34.7533 80.0507 32.3909ZM90.6906 33.7529C90.863 35.3258 92.3612 36.3585 94.4084 36.3585C96.3701 36.3585 97.7814 35.3257 97.7814 33.9076C97.7814 32.6765 96.9302 31.9393 94.9147 31.4342L92.8993 30.939C90.0436 30.2355 88.7179 28.8735 88.7179 26.6633C88.7179 23.9267 91.0563 22.047 94.3766 22.047C97.6627 22.047 99.9154 23.9267 99.9913 26.6633H97.6419C97.5013 25.0804 96.2184 24.125 94.3436 24.125C92.4688 24.125 91.1859 25.0917 91.1859 26.4986C91.1859 27.6199 92.0052 28.2798 94.0097 28.7849L95.7231 29.2139C98.9138 29.9835 100.24 31.2907 100.24 33.6106C100.24 36.578 97.922 38.4364 94.2359 38.4364C90.7872 38.4364 88.4586 36.6216 88.3082 33.7528L90.6906 33.7529ZM105.262 23.8719V26.6084H107.418V28.4881H105.262V34.863C105.262 35.8534 105.694 36.3149 106.642 36.3149C106.898 36.3103 107.153 36.292 107.407 36.26V38.1284C106.981 38.2096 106.548 38.2464 106.115 38.2382C103.819 38.2382 102.924 37.3588 102.924 35.1162V28.4881H101.275V26.6084H102.924V23.8719H105.262ZM108.667 32.3909C108.667 28.7525 110.768 26.4663 114.044 26.4663C117.332 26.4663 119.423 28.7525 119.423 32.3909C119.423 36.0393 117.343 38.3156 114.044 38.3156C110.747 38.3156 108.667 36.0392 108.667 32.3909ZM117.052 32.3909C117.052 29.8951 115.93 28.422 114.044 28.422C112.159 28.422 111.038 29.9063 111.038 32.3909C111.038 34.8967 112.159 36.3586 114.044 36.3586C115.93 36.3586 117.052 34.8967 117.052 32.3909ZM121.342 26.6084H123.562V28.5766H123.615C123.925 27.3096 125.063 26.4376 126.343 26.4874C126.611 26.4865 126.878 26.5162 127.14 26.576V28.7962C126.801 28.6907 126.448 28.6422 126.094 28.6527C125.41 28.6244 124.748 28.9025 124.282 29.414C123.815 29.9255 123.592 30.6193 123.669 31.3132V38.1721H121.342L121.342 26.6084ZM137.87 34.7757C137.557 36.8749 135.553 38.3155 132.988 38.3155C129.69 38.3155 127.643 36.0617 127.643 32.4458C127.643 28.8186 129.701 26.4662 132.89 26.4662C136.027 26.4662 138 28.664 138 32.1701V32.9834H129.992V33.1268C129.917 33.9877 130.209 34.8399 130.792 35.4665C131.376 36.0932 132.195 36.434 133.042 36.4022C134.171 36.5101 135.236 35.8487 135.66 34.7757L137.87 34.7757ZM130.003 31.3245L135.671 31.3245C135.714 30.5509 135.438 29.7944 134.91 29.2373C134.382 28.6802 133.65 28.3729 132.89 28.3896C132.125 28.3849 131.389 28.6923 130.847 29.2434C130.305 29.7946 130.001 30.5437 130.003 31.3245ZM48.2565 10.3731C49.2446 10.3008 50.2123 10.6841 50.8934 11.4177C51.5745 12.1512 51.8972 13.1576 51.7726 14.1599C51.7726 16.5946 50.4824 17.9941 48.2565 17.9941H45.5574V10.3731H48.2565ZM46.718 16.9163H48.1269C48.833 16.9594 49.5205 16.6756 49.9986 16.1439C50.4766 15.6122 50.6943 14.8891 50.5912 14.1754C50.6868 13.4646 50.466 12.7475 49.9891 12.2201C49.5122 11.6927 48.8292 11.4103 48.1269 11.45H46.718V16.9163ZM53.0836 15.1159C52.9869 14.085 53.4716 13.0873 54.3343 12.5413C55.1971 11.9953 56.2888 11.9953 57.1516 12.5413C58.0143 13.0873 58.499 14.085 58.4023 15.1159C58.5008 16.1478 58.0166 17.1474 57.1531 17.6946C56.2896 18.2419 55.1964 18.2419 54.3328 17.6946C53.4693 17.1474 52.9851 16.1478 53.0836 15.1159ZM57.2576 15.1159C57.2576 13.8692 56.7085 13.1401 55.7448 13.1401C54.7774 13.1401 54.2332 13.8692 54.2332 15.1159C54.2332 16.3725 54.7775 17.0959 55.7448 17.0959C56.7085 17.0959 57.2576 16.3675 57.2576 15.1159ZM65.4723 17.994H64.3178L63.1523 13.7582H63.0643L61.9037 17.994H60.7602L59.2058 12.2427H60.3346L61.3448 16.6313H61.428L62.5873 12.2427H63.655L64.8144 16.6313H64.9024L65.9077 12.2427H67.0206L65.4723 17.994ZM68.3279 12.2427H69.3993V13.1563H69.4824C69.7716 12.4837 70.4474 12.0722 71.1652 12.1317C71.721 12.0891 72.2657 12.3065 72.6454 12.7227C73.0251 13.1388 73.1987 13.7085 73.1171 14.2708V17.9939H72.0042V14.5558C72.0042 13.6316 71.6104 13.1719 70.7873 13.1719C70.4103 13.154 70.0445 13.3049 69.7857 13.5851C69.5269 13.8652 69.4009 14.2467 69.4408 14.6294V17.994H68.3279L68.3279 12.2427ZM74.8904 9.99756H76.0033V17.994H74.8904V9.99756ZM77.5504 15.1159C77.4537 14.0849 77.9385 13.0872 78.8013 12.5412C79.6641 11.9951 80.7559 11.9951 81.6187 12.5412C82.4816 13.0872 82.9663 14.0849 82.8697 15.1159C82.9681 16.1479 82.4838 17.1474 81.6202 17.6946C80.7566 18.2418 79.6634 18.2418 78.7998 17.6946C77.9363 17.1474 77.452 16.1479 77.5504 15.1159ZM81.7244 15.1159C81.7244 13.8692 81.1752 13.1401 80.2115 13.1401C79.2442 13.1401 78.7 13.8692 78.7 15.1159C78.7 16.3725 79.2442 17.0959 80.2115 17.0959C81.1752 17.0959 81.7244 16.3675 81.7244 15.1159ZM84.0413 16.3675C84.0413 15.3323 84.7971 14.7354 86.1387 14.6506L87.6662 14.5608V14.0644C87.6662 13.457 87.2724 13.114 86.5117 13.114C85.8904 13.114 85.4599 13.3466 85.3364 13.7532H84.259C84.3727 12.7653 85.2838 12.1317 86.5631 12.1317C87.9768 12.1317 88.7742 12.8495 88.7742 14.0644V17.994H87.7029V17.1858H87.6148C87.251 17.776 86.6039 18.121 85.921 18.0888C85.4423 18.1395 84.9648 17.9814 84.6067 17.6535C84.2486 17.3255 84.0432 16.8584 84.0413 16.3675ZM87.6662 15.8761V15.3953L86.2891 15.4851C85.5125 15.5381 85.1603 15.8075 85.1603 16.3145C85.1603 16.8321 85.6006 17.1333 86.206 17.1333C86.5644 17.1703 86.9222 17.0574 87.1974 16.8204C87.4727 16.5834 87.6418 16.2426 87.6662 15.8761ZM90.2369 15.1159C90.2369 13.2985 91.1529 12.1473 92.5776 12.1473C93.2971 12.1135 93.9709 12.5066 94.3069 13.1563H94.3901V9.99756H95.503V17.994H94.4365V17.0853H94.3485C93.9871 17.7296 93.3049 18.1161 92.5776 18.0888C91.1431 18.0888 90.2369 16.9375 90.2369 15.1159ZM91.3865 15.1159C91.3865 16.3357 91.9503 17.0698 92.8932 17.0698C93.8312 17.0698 94.4109 16.3251 94.4109 15.1209C94.4109 13.9222 93.8251 13.167 92.8932 13.167C91.9564 13.167 91.3865 13.906 91.3865 15.1159ZM100.107 15.1159C100.011 14.085 100.495 13.0873 101.358 12.5413C102.221 11.9953 103.313 11.9953 104.175 12.5413C105.038 13.0873 105.523 14.085 105.426 15.1159C105.525 16.1478 105.04 17.1474 104.177 17.6946C103.313 18.2419 102.22 18.2419 101.357 17.6946C100.493 17.1474 100.009 16.1478 100.107 15.1159ZM104.281 15.1159C104.281 13.8692 103.732 13.1401 102.769 13.1401C101.801 13.1401 101.257 13.8692 101.257 15.1159C101.257 16.3725 101.801 17.0959 102.769 17.0959C103.732 17.0959 104.281 16.3675 104.281 15.1159ZM106.919 12.2427H107.991V13.1563H108.074C108.363 12.4837 109.039 12.0722 109.757 12.1317C110.312 12.0891 110.857 12.3065 111.237 12.7227C111.617 13.1388 111.79 13.7085 111.709 14.2708V17.9939H110.596V14.5558C110.596 13.6316 110.202 13.1719 109.379 13.1719C109.002 13.154 108.636 13.3049 108.377 13.5851C108.118 13.8652 107.992 14.2467 108.032 14.6294V17.994H106.919V12.2427ZM117.997 10.8108V12.2689H119.219V13.225H117.997V16.1823C117.997 16.7847 118.24 17.0485 118.794 17.0485C118.936 17.0481 119.078 17.0393 119.219 17.0223V17.9678C119.019 18.0043 118.816 18.0237 118.613 18.0258C117.376 18.0258 116.883 17.5817 116.883 16.4729V13.2249H115.988V12.2688H116.883V10.8108H117.997ZM120.739 9.99756H121.842V13.1669H121.93C122.233 12.4884 122.921 12.0764 123.65 12.1367C124.202 12.106 124.74 12.3283 125.115 12.7429C125.491 13.1575 125.665 13.7213 125.592 14.2808V17.994H124.478V14.5608C124.478 13.6421 124.058 13.1769 123.272 13.1769C122.885 13.1445 122.503 13.2881 122.229 13.5692C121.956 13.8503 121.818 14.2403 121.852 14.635V17.994H120.739L120.739 9.99756ZM132.081 16.4411C131.769 17.526 130.739 18.2269 129.637 18.105C128.885 18.1252 128.163 17.8074 127.661 17.2357C127.159 16.664 126.93 15.8964 127.032 15.1364C126.932 14.3744 127.161 13.6055 127.66 13.029C128.159 12.4525 128.879 12.1251 129.632 12.1317C131.201 12.1317 132.148 13.225 132.148 15.031V15.4271H128.166V15.4907C128.131 15.9174 128.274 16.3396 128.56 16.6533C128.846 16.9669 129.248 17.1431 129.668 17.1383C130.212 17.205 130.742 16.9295 131.009 16.4411L132.081 16.4411ZM128.166 14.5876H131.014C131.043 14.1973 130.908 13.8129 130.644 13.5292C130.379 13.2454 130.01 13.0888 129.626 13.0977C129.237 13.0927 128.863 13.2481 128.588 13.5287C128.313 13.8092 128.161 14.191 128.166 14.5876ZM31.3136 26.1642C31.3165 28.8437 32.9255 31.2618 35.4 32.3056C34.9241 33.8474 34.2067 35.3045 33.2745 36.6229C32.0225 38.4906 30.7098 40.3153 28.6264 40.3491C26.6019 40.3957 25.9216 39.1609 23.5996 39.1609C21.2559 39.1609 20.5307 40.3153 18.5891 40.3957C16.6049 40.469 15.0885 38.4022 13.791 36.552C11.1977 32.7734 9.17833 25.9035 11.8856 21.229C13.1569 18.9507 15.5339 17.505 18.1469 17.4208C20.1328 17.38 21.9771 18.7584 23.1981 18.7584C24.396 18.7584 26.6748 17.1095 29.0254 17.3556C31.2597 17.4253 33.3302 18.5416 34.6123 20.3678C32.5892 21.6083 31.3442 23.7959 31.3136 26.1642ZM27.4898 14.8706C26.3877 16.2377 24.7177 17.0251 22.9589 17.007C22.847 15.2929 23.423 13.6048 24.5599 12.3144C25.7112 11.0066 27.3144 10.1794 29.0499 9.99756C29.1854 11.7625 28.6258 13.5106 27.4898 14.8706Z"
    fill="#F1F5FB" />
</svg>