<svg width="64" height="64" viewBox="0 0 64 64" fill="none" xmlns="http://www.w3.org/2000/svg">
<circle cx="32" cy="32" r="32" fill="#F3C065"/>
<path d="M43.4292 29.8604C42.3802 29.6706 41.316 29.5778 40.25 29.5833C39.6375 29.5833 39.0396 29.5833 38.4417 29.7C37.6973 28.7067 36.7472 27.8859 35.6563 27.2937C36.5933 26.2703 37.1135 24.9334 37.1146 23.5458C37.1146 22.0528 36.5215 20.621 35.4659 19.5654C34.4102 18.5097 32.9784 17.9166 31.4854 17.9166C29.9925 17.9166 28.5607 18.5097 27.505 19.5654C26.4493 20.621 25.8563 22.0528 25.8563 23.5458C25.8573 24.9334 26.3775 26.2703 27.3146 27.2937C26.2302 27.8889 25.2816 28.7034 24.5292 29.6854C23.9604 29.5833 23.3625 29.5833 22.75 29.5833C21.6831 29.5874 20.6189 29.69 19.5708 29.8895C19.2311 29.9517 18.9245 30.1323 18.7055 30.3994C18.4865 30.6664 18.3694 31.0026 18.375 31.3479V43.3791C18.3747 43.5934 18.4215 43.8051 18.5123 43.9991C18.603 44.1932 18.7354 44.3649 18.9 44.502C19.0636 44.64 19.2555 44.7402 19.4622 44.7957C19.6689 44.8511 19.8852 44.8604 20.0958 44.8229C20.9685 44.6328 21.8572 44.5254 22.75 44.502C25.5749 44.4989 28.3386 45.3255 30.6979 46.8791V46.8791L30.8875 46.952C31.081 47.036 31.2892 47.0806 31.5 47.0833C31.6392 47.0816 31.7772 47.0569 31.9083 47.0104H32.0104L32.2 46.9375C34.5818 45.3439 37.3843 44.4961 40.25 44.502C41.141 44.5062 42.0296 44.5941 42.9042 44.7645C43.1148 44.8021 43.3312 44.7928 43.5378 44.7373C43.7445 44.6819 43.9364 44.5816 44.1 44.4437C44.2646 44.3066 44.397 44.1349 44.4878 43.9408C44.5785 43.7467 44.6254 43.535 44.625 43.3208V31.2895C44.6238 30.9492 44.5035 30.6201 44.2851 30.359C44.0667 30.098 43.7639 29.9216 43.4292 29.8604V29.8604ZM31.5 20.8333C32.1832 20.8835 32.822 21.1903 33.2883 21.6921C33.7546 22.1939 34.0138 22.8535 34.0138 23.5385C34.0138 24.2235 33.7546 24.8831 33.2883 25.3849C32.822 25.8867 32.1832 26.1935 31.5 26.2437V26.2437C30.8169 26.1935 30.178 25.8867 29.7117 25.3849C29.2454 24.8831 28.9863 24.2235 28.9863 23.5385C28.9863 22.8535 29.2454 22.1939 29.7117 21.6921C30.178 21.1903 30.8169 20.8835 31.5 20.8333V20.8333ZM30.0417 43.1895C27.756 42.133 25.2681 41.5857 22.75 41.5854C22.2688 41.5854 21.7875 41.5854 21.2917 41.6583V32.5C22.5146 32.3632 23.7502 32.3877 24.9667 32.5729H25.1271C26.8648 32.8922 28.5301 33.5247 30.0417 34.4395V43.1895ZM31.5 31.9166C30.8515 31.5425 30.1793 31.2113 29.4875 30.925H29.4C28.9188 30.7354 28.4375 30.5458 27.9417 30.4C28.9542 29.594 30.206 29.1477 31.5 29.1312V29.1312C32.7906 29.1394 34.042 29.5753 35.0583 30.3708C33.8203 30.7573 32.6274 31.2755 31.5 31.9166V31.9166ZM41.7083 41.6583C38.7139 41.3574 35.6934 41.8608 32.9583 43.1166V34.3666C34.4727 33.4753 36.139 32.8721 37.8729 32.5875H38.1646C39.3371 32.4049 40.5283 32.3755 41.7083 32.5V41.6583Z" fill="white"/>
</svg>
