<svg width="64" height="64" viewBox="0 0 64 64" fill="none" xmlns="http://www.w3.org/2000/svg">
<circle cx="32" cy="32" r="32" fill="#FF8743"/>
<path d="M31.375 29.125H35.875C36.1734 29.125 36.4595 29.0065 36.6705 28.7955C36.8815 28.5845 37 28.2984 37 28C37 27.7016 36.8815 27.4155 36.6705 27.2045C36.4595 26.9935 36.1734 26.875 35.875 26.875H33.625V25.75C33.625 25.4516 33.5065 25.1655 33.2955 24.9545C33.0845 24.7435 32.7984 24.625 32.5 24.625C32.2016 24.625 31.9155 24.7435 31.7045 24.9545C31.4935 25.1655 31.375 25.4516 31.375 25.75V26.875C30.4799 26.875 29.6215 27.2306 28.9885 27.8635C28.3556 28.4965 28 29.3549 28 30.25C28 31.1451 28.3556 32.0036 28.9885 32.6365C29.6215 33.2694 30.4799 33.625 31.375 33.625H33.625C33.9234 33.625 34.2095 33.7435 34.4205 33.9545C34.6315 34.1655 34.75 34.4516 34.75 34.75C34.75 35.0484 34.6315 35.3345 34.4205 35.5455C34.2095 35.7565 33.9234 35.875 33.625 35.875H29.125C28.8266 35.875 28.5405 35.9935 28.3295 36.2045C28.1185 36.4155 28 36.7016 28 37C28 37.2984 28.1185 37.5845 28.3295 37.7955C28.5405 38.0065 28.8266 38.125 29.125 38.125H31.375V39.25C31.375 39.5484 31.4935 39.8345 31.7045 40.0455C31.9155 40.2565 32.2016 40.375 32.5 40.375C32.7984 40.375 33.0845 40.2565 33.2955 40.0455C33.5065 39.8345 33.625 39.5484 33.625 39.25V38.125C34.5201 38.125 35.3786 37.7694 36.0115 37.1365C36.6444 36.5036 37 35.6451 37 34.75C37 33.8549 36.6444 32.9964 36.0115 32.3635C35.3786 31.7306 34.5201 31.375 33.625 31.375H31.375C31.0766 31.375 30.7905 31.2565 30.5795 31.0455C30.3685 30.8345 30.25 30.5484 30.25 30.25C30.25 29.9516 30.3685 29.6655 30.5795 29.4545C30.7905 29.2435 31.0766 29.125 31.375 29.125ZM32.5 20.125C30.0525 20.125 27.6599 20.8508 25.6248 22.2106C23.5898 23.5703 22.0036 25.5031 21.067 27.7643C20.1304 30.0255 19.8853 32.5137 20.3628 34.9142C20.8403 37.3148 22.0189 39.5198 23.7496 41.2504C25.4802 42.9811 27.6852 44.1597 30.0858 44.6372C32.4863 45.1147 34.9745 44.8696 37.2357 43.933C39.4969 42.9964 41.4297 41.4102 42.7894 39.3752C44.1492 37.3401 44.875 34.9475 44.875 32.5C44.875 29.2179 43.5712 26.0703 41.2505 23.7496C38.9297 21.4288 35.7821 20.125 32.5 20.125ZM32.5 42.625C30.4975 42.625 28.5399 42.0312 26.8749 40.9186C25.2098 39.8061 23.9121 38.2248 23.1457 36.3747C22.3794 34.5246 22.1789 32.4888 22.5696 30.5247C22.9602 28.5607 23.9245 26.7566 25.3405 25.3405C26.7566 23.9245 28.5607 22.9602 30.5247 22.5695C32.4888 22.1789 34.5246 22.3794 36.3747 23.1457C38.2248 23.9121 39.8061 25.2098 40.9186 26.8749C42.0312 28.5399 42.625 30.4975 42.625 32.5C42.625 35.1853 41.5583 37.7606 39.6595 39.6595C37.7607 41.5583 35.1853 42.625 32.5 42.625Z" fill="white"/>
</svg>
