<svg width="64" height="64" viewBox="0 0 64 64" fill="none" xmlns="http://www.w3.org/2000/svg">
<circle cx="32" cy="32" r="32" fill="#32A861"/>
<path d="M43.125 27.3333C41.1875 27.3333 40.1542 29.1417 40.6708 30.5625L36.0208 35.2125C35.6333 35.0833 35.1167 35.0833 34.7292 35.2125L31.3708 31.8542C31.8875 30.4333 30.8542 28.625 28.9167 28.625C27.1083 28.625 25.9458 30.4333 26.4625 31.8542L20.5208 37.6667C19.1 37.2792 17.2917 38.3125 17.2917 40.25C17.2917 41.6708 18.4542 42.8333 19.875 42.8333C21.6833 42.8333 22.8458 41.025 22.3292 39.6042L28.1417 33.6625C28.5292 33.7917 29.0458 33.7917 29.4333 33.6625L32.7917 37.0208C32.4042 38.3125 33.4375 40.25 35.375 40.25C37.3125 40.25 38.3458 38.4417 37.8292 37.0208L42.4792 32.3708C43.9 32.7583 45.7083 31.725 45.7083 29.9167C45.7083 28.4958 44.5458 27.3333 43.125 27.3333ZM35.375 28.625L36.5375 25.9125L39.25 24.75L36.5375 23.5875L35.375 20.875L34.2125 23.5875L31.5 24.75L34.2125 25.9125L35.375 28.625ZM20.5208 31.2083L21.1667 28.625L23.75 27.9792L21.1667 27.3333L20.5208 24.75L19.875 27.3333L17.2917 27.9792L19.875 28.625L20.5208 31.2083Z" fill="white"/>
</svg>
