<svg width="64" height="64" viewBox="0 0 64 64" fill="none" xmlns="http://www.w3.org/2000/svg">
<circle cx="32" cy="32" r="32" fill="#EC6B74"/>
<path d="M37.9383 21.29C36.8653 20.4075 35.6089 19.7757 34.2606 19.4406C32.9123 19.1056 31.5063 19.0758 30.145 19.3533C28.3324 19.7195 26.6695 20.6158 25.3671 21.9285C24.0648 23.2412 23.1817 24.9113 22.83 26.7267C22.5732 28.0878 22.6198 29.4889 22.9667 30.83C23.3135 32.1711 23.9521 33.4191 24.8367 34.485C25.6576 35.4114 26.1282 36.5961 26.1667 37.8333V41.3333C26.1667 42.2616 26.5354 43.1518 27.1918 43.8082C27.8482 44.4646 28.7384 44.8333 29.6667 44.8333H34.3333C35.2616 44.8333 36.1518 44.4646 36.8082 43.8082C37.4646 43.1518 37.8333 42.2616 37.8333 41.3333V38.055C37.8725 36.689 38.3743 35.3768 39.2567 34.3333C40.8026 32.4209 41.5314 29.9756 41.2845 27.5289C41.0377 25.0822 39.8352 22.8317 37.9383 21.2667V21.29ZM35.5 41.3333C35.5 41.6428 35.3771 41.9395 35.1583 42.1583C34.9395 42.3771 34.6428 42.5 34.3333 42.5H29.6667C29.3572 42.5 29.0605 42.3771 28.8417 42.1583C28.6229 41.9395 28.5 41.6428 28.5 41.3333V40.1667H35.5V41.3333ZM37.4483 32.8867C36.2753 34.278 35.5908 36.0157 35.5 37.8333H33.1667V34.3333C33.1667 34.0239 33.0437 33.7272 32.825 33.5084C32.6062 33.2896 32.3094 33.1667 32 33.1667C31.6906 33.1667 31.3938 33.2896 31.175 33.5084C30.9562 33.7272 30.8333 34.0239 30.8333 34.3333V37.8333H28.5C28.4692 36.0461 27.8081 34.3272 26.6333 32.98C25.8582 32.0513 25.337 30.9377 25.1205 29.7476C24.904 28.5575 24.9996 27.3316 25.3979 26.1894C25.7963 25.0473 26.4838 24.0279 27.3934 23.2305C28.3031 22.4332 29.4038 21.8852 30.5883 21.64C31.6063 21.4304 32.6582 21.4501 33.6676 21.6977C34.677 21.9453 35.6186 22.4146 36.4241 23.0714C37.2295 23.7283 37.8786 24.5563 38.3241 25.4953C38.7697 26.4343 39.0006 27.4607 39 28.5C39.0086 30.0982 38.4599 31.6494 37.4483 32.8867V32.8867Z" fill="white"/>
</svg>
