<svg width="70" height="70" viewBox="0 0 70 70" fill="none" xmlns="http://www.w3.org/2000/svg">
<circle cx="35" cy="35" r="35" fill="#F3C065"/>
<path d="M48.1571 30.5975L38.5833 21.2858C37.7724 20.5148 36.6961 20.0848 35.5771 20.0848C34.4581 20.0848 33.3818 20.5148 32.5708 21.2858L22.9971 30.5358C22.5717 30.9071 22.2296 31.3642 21.9931 31.8769C21.7567 32.3897 21.6312 32.9466 21.625 33.5112V46.7387C21.6412 47.8605 22.1014 48.93 22.9048 49.7131C23.7081 50.4962 24.789 50.929 25.9108 50.9166H45.0892C46.211 50.929 47.2919 50.4962 48.0952 49.7131C48.8986 48.93 49.3587 47.8605 49.375 46.7387V33.5112C49.3738 32.9693 49.2656 32.4329 49.0566 31.9329C48.8476 31.4329 48.5419 30.9791 48.1571 30.5975ZM34.6367 23.5058C34.8725 23.2902 35.1805 23.1707 35.5 23.1707C35.8195 23.1707 36.1275 23.2902 36.3633 23.5058L44.75 31.6458L36.3171 39.7858C36.0812 40.0014 35.7733 40.1209 35.4537 40.1209C35.1342 40.1209 34.8263 40.0014 34.5904 39.7858L26.25 31.6458L34.6367 23.5058ZM46.2917 46.7387C46.2718 47.0413 46.1355 47.3244 45.9112 47.5286C45.687 47.7327 45.3923 47.8419 45.0892 47.8333H25.9108C25.6077 47.8419 25.313 47.7327 25.0888 47.5286C24.8645 47.3244 24.7282 47.0413 24.7083 46.7387V34.4979L30.9521 40.5104L28.3929 42.9771C28.1058 43.2659 27.9446 43.6567 27.9446 44.0639C27.9446 44.4712 28.1058 44.862 28.3929 45.1508C28.5362 45.3011 28.7084 45.4209 28.8991 45.5031C29.0899 45.5852 29.2952 45.6279 29.5029 45.6287C29.8998 45.6271 30.2809 45.4725 30.5667 45.1971L33.2954 42.5762C33.9731 42.9904 34.752 43.2095 35.5462 43.2095C36.3405 43.2095 37.1194 42.9904 37.7971 42.5762L40.5258 45.1971C40.8116 45.4725 41.1926 45.6271 41.5896 45.6287C41.7973 45.6279 42.0026 45.5852 42.1934 45.5031C42.3841 45.4209 42.5563 45.3011 42.6996 45.1508C42.9867 44.862 43.1479 44.4712 43.1479 44.0639C43.1479 43.6567 42.9867 43.2659 42.6996 42.9771L40.125 40.5104L46.2917 34.4979V46.7387Z" fill="#F0FDF4"/>
</svg>
