<svg width="70" height="70" viewBox="0 0 70 70" fill="none" xmlns="http://www.w3.org/2000/svg">
<circle cx="35" cy="35" r="35" fill="#F3C065"/>
<path d="M47.3498 39.6666C46.9831 39.6666 46.5998 39.55 46.2331 39.4666C45.4912 39.3007 44.7617 39.0836 44.0498 38.8166C43.2766 38.5354 42.4267 38.55 41.6636 38.8577C40.9006 39.1653 40.2783 39.7444 39.9165 40.4833L39.5498 41.25C37.9312 40.332 36.4358 39.2119 35.0998 37.9166C33.8046 36.5806 32.6845 35.0853 31.7665 33.4666L32.5331 33.1166C33.2721 32.7548 33.8511 32.1325 34.1588 31.3695C34.4665 30.6064 34.4811 29.7565 34.1998 28.9833C33.9351 28.265 33.718 27.5301 33.5498 26.7833C33.4665 26.4166 33.3998 26.0333 33.3498 25.6666C33.1474 24.4927 32.5325 23.4295 31.6158 22.6687C30.6992 21.9079 29.541 21.4993 28.3498 21.5166H23.3331C22.6285 21.5157 21.9317 21.6637 21.2883 21.951C20.6449 22.2382 20.0695 22.6581 19.5998 23.1833C19.1203 23.7227 18.7633 24.3596 18.5533 25.05C18.3433 25.7405 18.2852 26.4683 18.3831 27.1833C19.2891 34.1202 22.4585 40.5644 27.3998 45.5166C32.352 50.458 38.7962 53.6273 45.7331 54.5333C45.9495 54.5498 46.1668 54.5498 46.3831 54.5333C47.6122 54.5351 48.7988 54.0842 49.7165 53.2666C50.2416 52.7969 50.6616 52.2215 50.9488 51.5781C51.236 50.9347 51.3841 50.2379 51.3831 49.5333V44.5333C51.3741 43.3817 50.9679 42.2685 50.233 41.3818C49.4982 40.4951 48.4797 39.8893 47.3498 39.6666ZM48.1665 49.6666C48.1659 49.8992 48.1167 50.1291 48.022 50.3415C47.9272 50.5539 47.7891 50.7442 47.6165 50.9C47.4338 51.0664 47.2164 51.1901 46.98 51.2622C46.7437 51.3343 46.4942 51.3529 46.2498 51.3166C40.0303 50.5044 34.2502 47.67 29.7998 43.25C25.3456 38.7958 22.4865 32.9956 21.6665 26.75C21.6303 26.5055 21.6489 26.2561 21.7209 26.0197C21.793 25.7834 21.9167 25.566 22.0831 25.3833C22.2408 25.2086 22.4338 25.0692 22.6492 24.9744C22.8647 24.8796 23.0978 24.8315 23.3331 24.8333H28.3331C28.7184 24.8239 29.095 24.9483 29.3989 25.1853C29.7028 25.4223 29.9151 25.7573 29.9998 26.1333C29.9998 26.5833 30.1498 27.05 30.2498 27.5C30.4424 28.3731 30.6987 29.2309 31.0165 30.0666L28.6831 31.1666C28.2821 31.3508 27.9704 31.6864 27.8165 32.1C27.6498 32.5057 27.6498 32.9609 27.8165 33.3666C30.2151 38.5046 34.3452 42.6346 39.4831 45.0333C39.8889 45.2 40.344 45.2 40.7498 45.0333C41.1634 44.8794 41.499 44.5677 41.6831 44.1666L42.7331 41.8333C43.593 42.1468 44.4727 42.403 45.3665 42.6C45.7998 42.7 46.2665 42.7833 46.7165 42.85C47.0924 42.9346 47.4274 43.147 47.6645 43.4509C47.9015 43.7547 48.0259 44.1314 48.0165 44.5166L48.1665 49.6666ZM38.3331 21.3333C37.9498 21.3333 37.5498 21.3333 37.1665 21.3333C36.7244 21.3709 36.3154 21.5825 36.0294 21.9216C35.7435 22.2608 35.6039 22.6996 35.6415 23.1416C35.679 23.5837 35.8907 23.9927 36.2298 24.2787C36.5689 24.5647 37.0078 24.7042 37.4498 24.6666H38.3331C40.9853 24.6666 43.5288 25.7202 45.4042 27.5956C47.2796 29.4709 48.3331 32.0145 48.3331 34.6666C48.3331 34.9666 48.3331 35.25 48.3331 35.55C48.2962 35.9897 48.4351 36.4261 48.7194 36.7635C49.0037 37.1009 49.4102 37.3118 49.8498 37.35H49.9831C50.4004 37.3517 50.803 37.1968 51.1116 36.916C51.4202 36.6352 51.6123 36.2488 51.6498 35.8333C51.6498 35.45 51.6498 35.05 51.6498 34.6666C51.6498 31.1333 50.2473 27.7444 47.7504 25.2444C45.2536 22.7444 41.8665 21.3377 38.3331 21.3333ZM41.6665 34.6666C41.6665 35.1087 41.8421 35.5326 42.1546 35.8452C42.4672 36.1577 42.8911 36.3333 43.3331 36.3333C43.7752 36.3333 44.1991 36.1577 44.5116 35.8452C44.8242 35.5326 44.9998 35.1087 44.9998 34.6666C44.9998 32.8985 44.2974 31.2028 43.0472 29.9526C41.7969 28.7024 40.1012 28 38.3331 28C37.8911 28 37.4672 28.1756 37.1546 28.4881C36.8421 28.8007 36.6665 29.2246 36.6665 29.6666C36.6665 30.1087 36.8421 30.5326 37.1546 30.8452C37.4672 31.1577 37.8911 31.3333 38.3331 31.3333C39.2172 31.3333 40.065 31.6845 40.6902 32.3096C41.3153 32.9347 41.6665 33.7826 41.6665 34.6666Z" fill="#F0FDF4"/>
</svg>
