<svg width="70" height="70" viewBox="0 0 70 70" fill="none" xmlns="http://www.w3.org/2000/svg">
<circle cx="35" cy="35" r="35" fill="#F3C065"/>
<path d="M35.0568 20.8333C27.3218 20.8333 21.0176 27.1375 21.0176 34.8725C21.0176 37.3516 21.6693 39.76 22.8876 41.885L20.9043 49.1666L28.3418 47.2116C30.396 48.3308 32.7051 48.9258 35.0568 48.9258C42.7918 48.9258 49.096 42.6216 49.096 34.8866C49.096 31.1325 47.6368 27.605 44.9876 24.9558C42.3385 22.2925 38.811 20.8333 35.0568 20.8333ZM35.071 23.1991C38.1876 23.1991 41.106 24.4175 43.316 26.6275C45.5118 28.8375 46.7301 31.77 46.7301 34.8866C46.7301 41.3183 41.4885 46.5458 35.0568 46.5458C32.9601 46.5458 30.906 45.9933 29.121 44.9166L28.696 44.6758L24.276 45.8375L25.4518 41.5308L25.1685 41.0775C24.0068 39.25 23.3835 37.0825 23.3835 34.8725C23.3976 28.4408 28.6251 23.1991 35.071 23.1991ZM30.0843 28.3841C29.8576 28.3841 29.4751 28.4691 29.1493 28.8233C28.8376 29.1775 27.9168 30.0416 27.9168 31.7558C27.9168 33.4841 29.1776 35.1416 29.3335 35.3825C29.5318 35.6233 31.8268 39.165 35.3543 40.6666C36.1901 41.0491 36.8418 41.2616 37.3518 41.4175C38.1876 41.6866 38.9526 41.6441 39.5618 41.5591C40.2418 41.46 41.6301 40.7091 41.9276 39.8875C42.2251 39.0658 42.2251 38.3716 42.1401 38.2158C42.041 38.0741 41.8143 37.9891 41.4601 37.8333C41.106 37.635 39.3776 36.785 39.066 36.6716C38.7401 36.5583 38.5418 36.5016 38.2726 36.8416C38.046 37.1958 37.366 37.9891 37.1676 38.2158C36.9551 38.4566 36.7568 38.485 36.4168 38.315C36.0485 38.1308 34.9151 37.7625 33.5835 36.5725C32.5351 35.6375 31.841 34.49 31.6285 34.1358C31.4585 33.7958 31.6143 33.5833 31.7843 33.4275C31.9401 33.2716 32.1668 33.0166 32.3085 32.8041C32.4926 32.6058 32.5493 32.45 32.6626 32.2233C32.776 31.9825 32.7193 31.7841 32.6343 31.6141C32.5493 31.4583 31.841 29.7016 31.5435 29.0075C31.2601 28.3275 30.9768 28.4125 30.7501 28.3983C30.5518 28.3983 30.3251 28.3841 30.0843 28.3841Z" fill="white"/>
</svg>
