<svg width="166" height="51" viewBox="0 0 166 51" fill="none" xmlns="http://www.w3.org/2000/svg">
  <rect y="0.997559" width="166" height="53" rx="5" fill="#30336A" />
  <path fill-rule="evenodd" clip-rule="evenodd"
    d="M58.0155 13.2384C58.0576 14.1668 57.7257 15.0722 57.0973 15.7434C56.3951 16.4896 55.4157 16.895 54.4038 16.8581C52.8519 16.8457 51.4584 15.8827 50.8677 14.4144C50.277 12.9461 50.6043 11.2587 51.6982 10.1323C52.4089 9.38995 53.3884 8.98188 54.4038 9.00503C54.9214 9.00327 55.4339 9.10983 55.9097 9.31815C56.3527 9.50096 56.7471 9.78853 57.0606 10.1573L56.4117 10.8211C55.9163 10.2183 55.1726 9.8889 54.4038 9.93187C53.6311 9.92799 52.8902 10.2464 52.352 10.8135C51.8137 11.3807 51.5246 12.1478 51.5512 12.9378C51.5348 14.1317 52.2221 15.2184 53.2933 15.6924C54.3645 16.1663 55.6093 15.9345 56.4484 15.1046C56.8251 14.687 57.0424 14.1446 57.0606 13.5766H54.4038V12.6748H57.9665C57.9992 12.8608 58.0156 13.0494 58.0155 13.2384ZM63.6228 10.1072H60.3172V12.4869H63.3289V13.3887H60.3172V15.7684H63.6228V16.6953H59.3377V9.18038H63.6228V10.1072ZM67.6384 16.6953H66.6957V10.1072H64.6389V9.18038H69.7442V10.1072H67.6384V16.6953ZM73.3436 16.6953V9.18038H74.2863V16.6953H73.3436ZM78.4734 16.6953H77.5307V10.1072H75.4739V9.18038H80.518V10.1072H78.4734V16.6953ZM90.0797 15.7184C88.5897 17.2341 86.1828 17.2341 84.6928 15.7184C83.2485 14.1543 83.2485 11.7089 84.6928 10.1448C85.4054 9.41052 86.3749 8.99756 87.3863 8.99756C88.3976 8.99756 89.3672 9.41052 90.0797 10.1448C91.5302 11.7063 91.5302 14.1568 90.0797 15.7184ZM85.3907 15.0921C86.4942 16.2163 88.2784 16.2163 89.3819 15.0921C90.4656 13.8699 90.4656 12.0058 89.3819 10.7836C88.2784 9.65937 86.4942 9.65937 85.3907 10.7836C84.3069 12.0058 84.3069 13.8699 85.3907 15.0921ZM92.4916 16.6953V9.18038H93.6424L97.2173 15.0295V9.18038H98.16V16.6953H97.1806L93.4465 10.5706V16.6953H92.4916ZM83.3828 27.6545C84.7731 27.6272 86.1146 28.1784 87.1001 29.1819C88.0856 30.1854 88.6307 31.5552 88.6106 32.9776C88.6105 35.9142 86.2859 38.296 83.4155 38.3006C80.545 38.3052 78.2131 35.9308 78.2041 32.9942C78.1951 30.0576 80.5124 27.6683 83.3828 27.6545ZM83.3828 36.209C84.1949 36.1897 84.9649 35.8357 85.5182 35.2273C86.0714 34.6188 86.361 33.8076 86.3211 32.9776C86.318 31.6508 85.5223 30.4608 84.3148 29.9767C83.1072 29.4927 81.7331 29.8131 80.8497 30.7845C79.9664 31.756 79.7533 33.1812 80.3123 34.3784C80.8714 35.5756 82.089 36.3016 83.3828 36.209ZM71.9847 27.6545H71.9724C73.3627 27.6272 74.7042 28.1784 75.6897 29.1819C76.6752 30.1854 77.2203 31.5552 77.2002 32.9776C77.2002 35.9158 74.8731 38.2983 72.001 38.3006C69.1289 38.3029 66.7982 35.9241 66.7937 32.9859C66.7892 30.0477 69.1126 27.6614 71.9847 27.6545ZM71.9847 36.209H71.9724C72.7845 36.1897 73.5545 35.8357 74.1078 35.2273C74.661 34.6188 74.9506 33.8076 74.9107 32.9776C74.9072 31.6497 74.11 30.4592 72.9009 29.9763C71.6918 29.4933 70.317 29.8162 69.4349 30.7904C68.5528 31.7645 68.343 33.1915 68.906 34.388C69.469 35.5845 70.6902 36.3068 71.9847 36.209ZM58.4073 29.2953L65.8387 29.2327C65.9241 29.6993 65.9651 30.1733 65.9612 30.648C66.0188 32.5965 65.3339 34.4917 64.0513 35.9335C62.5855 37.5037 60.5275 38.3486 58.4073 38.2505C55.4432 38.3686 52.6536 36.8181 51.1373 34.21C49.6209 31.6018 49.6209 28.354 51.1373 25.7458C52.6536 23.1377 55.4432 21.5872 58.4073 21.7052C60.4895 21.6868 62.4902 22.5317 63.9533 24.0474L62.3985 25.638C61.3257 24.5785 59.886 23.9974 58.395 24.0223C55.1495 24.0223 52.5184 26.714 52.5184 30.0343C52.5184 33.3545 55.1495 36.0462 58.395 36.0462C59.9212 36.1084 61.4019 35.5079 62.4719 34.3929C63.1818 33.6136 63.6133 32.6116 63.6962 31.5498H58.4073V29.2953ZM113.88 31.0488L114.137 31.6124L107.171 34.5557C107.607 35.573 108.608 36.2137 109.693 36.1714C110.741 36.1741 111.713 35.6127 112.252 34.6935L114.027 35.946C113.06 37.4257 111.432 38.3102 109.693 38.3006C108.31 38.3214 106.979 37.766 106.004 36.7621C105.03 35.7581 104.496 34.392 104.526 32.9776C104.442 31.5955 104.92 30.2392 105.848 29.2308C106.776 28.2224 108.07 27.6518 109.424 27.6545C111.453 27.731 113.226 29.0814 113.88 31.0488ZM106.779 32.8273L111.431 30.8484C111.065 30.1103 110.304 29.6667 109.497 29.7211C108.731 29.7565 108.011 30.1057 107.5 30.69C106.989 31.2744 106.729 32.0447 106.779 32.8273ZM101.123 37.9875V22.3315H103.412V37.9875H101.123ZM97.3765 28.8444V27.9677H99.4823V37.449C99.4823 41.3818 97.2663 42.9975 94.5851 42.9975C92.5641 43.0098 90.738 41.766 89.9695 39.8537L91.9651 39.002C92.3823 40.118 93.4175 40.8653 94.5851 40.8933C96.2991 40.8933 97.3643 39.8036 97.3643 37.7621V36.9981H97.2908C96.6028 37.81 95.5986 38.2686 94.5484 38.2505C91.7694 38.1127 89.5855 35.7675 89.5855 32.9212C89.5855 30.0749 91.7694 27.7298 94.5484 27.5919C95.5952 27.5905 96.5929 28.0462 97.2908 28.8444H97.3765ZM94.7565 36.209H94.7443C95.5399 36.1777 96.2884 35.8146 96.8157 35.2042C97.343 34.5938 97.6031 33.7893 97.5357 32.9776C97.5961 32.1696 97.3351 31.3709 96.8119 30.7626C96.2887 30.1542 95.5475 29.7877 94.7565 29.7462C93.1195 29.8938 91.864 31.2964 91.864 32.9776C91.864 34.6588 93.1195 36.0614 94.7565 36.209ZM124.617 22.3315C126.396 22.2008 128.096 23.0974 129.025 24.6549C129.953 26.2124 129.953 28.1698 129.025 29.7274C128.096 31.2849 126.396 32.1815 124.617 32.0508H121.422V37.9875H119.132V22.3315H124.617ZM124.605 29.8464L124.654 29.884C126.104 29.884 127.28 28.6811 127.28 27.1974C127.28 25.7136 126.104 24.5108 124.654 24.5108H121.409V29.8464H124.605ZM138.721 27.5919L138.782 27.6295C141.39 27.6295 143.422 29.2201 143.422 31.9631V37.9875H141.218V36.735H141.145C140.508 37.7479 139.381 38.3243 138.207 38.238C137.254 38.3101 136.313 37.9847 135.598 37.336C134.883 36.6872 134.455 35.7703 134.411 34.7937C134.411 32.5267 136.627 31.2742 138.819 31.2742C139.651 31.2706 140.471 31.4771 141.206 31.8754V31.7126C141.148 31.1109 140.856 30.5584 140.395 30.1792C139.935 29.8 139.345 29.6259 138.758 29.6961C137.902 29.6245 137.086 30.0764 136.676 30.8484L134.644 29.9842C135.416 28.4274 137.017 27.4877 138.721 27.5919ZM138.439 36.1714L138.5 36.209C139.88 36.1746 141.023 35.1061 141.182 33.704C140.546 33.3413 139.828 33.1596 139.1 33.178C137.95 33.178 136.652 33.5913 136.652 34.8438C136.652 35.7832 137.692 36.1714 138.439 36.1714ZM151.453 27.9677H154L147.732 42.7344H145.344L147.67 37.4615L143.594 27.9677H146.042L148.76 34.7561H148.833L151.453 27.9677ZM130.873 37.9875V22.3315H133.163V37.9875H130.873ZM40.22 24.9559C40.5295 25.1348 40.7144 25.4552 40.7144 25.8127C40.7144 26.1702 40.5294 26.4905 40.2199 26.669L34.6024 29.9114L30.659 26.0995L34.9738 21.9286L40.22 24.9559ZM34.0833 21.4141L29.948 25.412L15.6575 11.5976L28.3101 18.0813L34.0833 21.4141ZM15.8676 40.3976L29.948 26.7869L33.712 30.4257L28.3318 33.5316L15.8676 40.3976ZM14.8134 12.1568L29.2369 26.0992L14.8 40.055L14.8134 12.1568Z"
    fill="#F1F5FB" />
</svg>